<svg xmlns="http://www.w3.org/2000/svg" xmlns:xlink="http://www.w3.org/1999/xlink" width="60" zoomAndPan="magnify" viewBox="0 0 45 44.999999" height="60" preserveAspectRatio="xMidYMid meet" version="1.0"><defs><clipPath id="621a815e76"><path d="M 11 1.800781 L 40 1.800781 L 40 19 L 11 19 Z M 11 1.800781 " clip-rule="nonzero"/></clipPath><clipPath id="51e0f34366"><path d="M 19 16.710938 L 43.050781 16.710938 L 43.050781 43.050781 L 19 43.050781 Z M 19 16.710938 " clip-rule="nonzero"/></clipPath><clipPath id="a841a6b670"><path d="M 1.800781 13 L 19 13 L 19 41 L 1.800781 41 Z M 1.800781 13 " clip-rule="nonzero"/></clipPath><clipPath id="247378a234"><path d="M 11 1.800781 L 40 1.800781 L 40 19 L 11 19 Z M 11 1.800781 " clip-rule="nonzero"/></clipPath><clipPath id="bfbeb86817"><path d="M 19 16.710938 L 43.050781 16.710938 L 43.050781 43.050781 L 19 43.050781 Z M 19 16.710938 " clip-rule="nonzero"/></clipPath><clipPath id="91d061d8d3"><path d="M 1.800781 13 L 19 13 L 19 41 L 1.800781 41 Z M 1.800781 13 " clip-rule="nonzero"/></clipPath></defs><g clip-path="url(#621a815e76)"><path fill="#df2929" d="M 33.6875 17.25 L 25.964844 16.34375 L 27.660156 15.269531 C 27.988281 15.0625 28.070312 14.648438 27.90625 14.316406 L 22.246094 3.246094 L 29.351562 3.246094 C 30.550781 3.246094 31.664062 3.949219 32.203125 5.023438 L 34.886719 9.773438 C 35.054688 10.105469 35.46875 10.230469 35.796875 10.0625 L 37.53125 9.152344 Z M 19.480469 12.210938 L 13.117188 8.039062 L 14.894531 5.023438 C 15.515625 3.949219 16.671875 3.246094 17.910156 3.246094 L 20.71875 3.246094 L 22.414062 6.800781 Z M 39.308594 6.882812 C 39.101562 6.800781 38.894531 6.800781 38.6875 6.882812 L 35.753906 8.453125 L 33.402344 4.320312 C 32.617188 2.792969 31.046875 1.800781 29.351562 1.84375 L 17.910156 1.84375 C 16.21875 1.84375 14.605469 2.792969 13.738281 4.28125 L 11.589844 7.875 C 11.382812 8.203125 11.507812 8.660156 11.796875 8.867188 L 19.355469 13.820312 C 19.480469 13.90625 19.605469 13.945312 19.726562 13.945312 C 19.769531 13.945312 19.851562 13.945312 19.894531 13.90625 C 20.058594 13.863281 20.222656 13.738281 20.304688 13.574219 L 23.195312 8.203125 L 26.378906 14.398438 L 23.488281 16.175781 C 23.238281 16.34375 23.113281 16.632812 23.15625 16.921875 C 23.238281 17.210938 23.445312 17.457031 23.734375 17.457031 L 33.980469 18.65625 C 34.019531 18.65625 34.019531 18.65625 34.0625 18.65625 C 34.308594 18.65625 34.558594 18.492188 34.679688 18.242188 L 39.597656 7.789062 C 39.804688 7.5 39.636719 7.089844 39.308594 6.882812 " fill-opacity="1" fill-rule="nonzero"/></g><g clip-path="url(#51e0f34366)"><path fill="#df2929" d="M 41.25 26.132812 L 40.011719 28.199219 L 35.300781 28.199219 L 32.367188 22.785156 L 39.429688 18.492188 L 41.332031 22.453125 C 41.949219 23.613281 41.910156 25.015625 41.25 26.132812 Z M 34.96875 37.121094 C 34.433594 38.234375 33.316406 38.9375 32.121094 38.894531 L 26.625 38.894531 C 26.253906 38.894531 25.925781 39.226562 25.925781 39.597656 L 25.925781 40.339844 L 20.636719 33.238281 L 25.925781 27.207031 L 25.925781 28.941406 C 25.925781 29.355469 26.214844 29.644531 26.625 29.644531 L 39.183594 29.644531 Z M 42.53125 21.796875 L 40.296875 17.210938 C 40.132812 16.839844 39.71875 16.714844 39.390625 16.878906 C 39.390625 16.878906 39.347656 16.878906 39.347656 16.921875 L 31.085938 21.917969 C 30.757812 22.082031 30.675781 22.496094 30.839844 22.828125 L 33.730469 28.199219 L 27.328125 28.199219 L 27.328125 25.347656 C 27.328125 24.933594 27.039062 24.644531 26.625 24.644531 C 26.417969 24.644531 26.253906 24.730469 26.128906 24.894531 L 19.234375 32.742188 C 19.027344 32.988281 18.984375 33.359375 19.191406 33.648438 L 26.089844 42.902344 C 26.335938 43.234375 26.75 43.273438 27.039062 43.027344 C 27.207031 42.902344 27.285156 42.699219 27.285156 42.449219 L 27.285156 40.300781 L 32.121094 40.300781 C 33.816406 40.339844 35.382812 39.394531 36.167969 37.824219 L 41 29.273438 L 42.449219 26.875 C 43.355469 25.304688 43.398438 23.363281 42.53125 21.796875 " fill-opacity="1" fill-rule="nonzero"/></g><g clip-path="url(#a841a6b670)"><path fill="#df2929" d="M 14.523438 21.175781 C 14.191406 21.050781 13.863281 21.175781 13.695312 21.464844 L 7.75 32.203125 L 4.527344 26.421875 C 3.949219 25.304688 3.949219 23.941406 4.566406 22.828125 L 7.128906 17.496094 C 7.292969 17.167969 7.167969 16.753906 6.878906 16.589844 L 4.734375 15.226562 L 13.117188 14.691406 L 16.339844 21.917969 Z M 15.597656 30.34375 L 15.597656 38.894531 L 13.53125 38.894531 C 12.25 38.894531 11.054688 38.195312 10.433594 37.035156 L 8.53125 33.648438 L 10.472656 30.34375 Z M 18.28125 22.910156 L 14.152344 13.65625 C 14.027344 13.410156 13.777344 13.246094 13.488281 13.246094 L 2.503906 13.945312 C 2.128906 13.988281 1.839844 14.316406 1.839844 14.691406 C 1.839844 14.9375 1.964844 15.144531 2.171875 15.269531 L 5.558594 17.457031 L 3.285156 22.167969 C 2.460938 23.695312 2.460938 25.59375 3.285156 27.125 L 7.128906 33.980469 L 9.234375 37.742188 C 10.144531 39.308594 11.753906 40.300781 13.53125 40.300781 L 16.300781 40.300781 C 16.671875 40.300781 17 39.96875 17 39.597656 L 17 29.601562 C 17 29.1875 16.710938 28.898438 16.300781 28.898438 L 11.136719 28.898438 L 14.566406 22.746094 L 17.414062 23.859375 C 17.785156 23.984375 18.15625 23.820312 18.324219 23.449219 C 18.363281 23.28125 18.363281 23.078125 18.28125 22.910156 " fill-opacity="1" fill-rule="nonzero"/></g><g clip-path="url(#247378a234)"><path fill="#df2929" d="M 33.6875 17.25 L 25.964844 16.34375 L 27.660156 15.269531 C 27.988281 15.0625 28.070312 14.648438 27.90625 14.316406 L 22.246094 3.246094 L 29.351562 3.246094 C 30.550781 3.246094 31.664062 3.949219 32.203125 5.023438 L 34.886719 9.773438 C 35.054688 10.105469 35.46875 10.230469 35.796875 10.0625 L 37.53125 9.152344 Z M 19.480469 12.210938 L 13.117188 8.039062 L 14.894531 5.023438 C 15.515625 3.949219 16.671875 3.246094 17.910156 3.246094 L 20.71875 3.246094 L 22.414062 6.800781 Z M 39.308594 6.882812 C 39.101562 6.800781 38.894531 6.800781 38.6875 6.882812 L 35.753906 8.453125 L 33.402344 4.320312 C 32.617188 2.792969 31.046875 1.800781 29.351562 1.84375 L 17.910156 1.84375 C 16.21875 1.84375 14.605469 2.792969 13.738281 4.28125 L 11.589844 7.875 C 11.382812 8.203125 11.507812 8.660156 11.796875 8.867188 L 19.355469 13.820312 C 19.480469 13.90625 19.605469 13.945312 19.726562 13.945312 C 19.769531 13.945312 19.851562 13.945312 19.894531 13.90625 C 20.058594 13.863281 20.222656 13.738281 20.304688 13.574219 L 23.195312 8.203125 L 26.378906 14.398438 L 23.488281 16.175781 C 23.238281 16.34375 23.113281 16.632812 23.15625 16.921875 C 23.238281 17.210938 23.445312 17.457031 23.734375 17.457031 L 33.980469 18.65625 C 34.019531 18.65625 34.019531 18.65625 34.0625 18.65625 C 34.308594 18.65625 34.558594 18.492188 34.679688 18.242188 L 39.597656 7.789062 C 39.804688 7.5 39.636719 7.089844 39.308594 6.882812 " fill-opacity="1" fill-rule="nonzero"/></g><g clip-path="url(#bfbeb86817)"><path fill="#df2929" d="M 41.25 26.132812 L 40.011719 28.199219 L 35.300781 28.199219 L 32.367188 22.785156 L 39.429688 18.492188 L 41.332031 22.453125 C 41.949219 23.613281 41.910156 25.015625 41.25 26.132812 Z M 34.96875 37.121094 C 34.433594 38.234375 33.316406 38.9375 32.121094 38.894531 L 26.625 38.894531 C 26.253906 38.894531 25.925781 39.226562 25.925781 39.597656 L 25.925781 40.339844 L 20.636719 33.238281 L 25.925781 27.207031 L 25.925781 28.941406 C 25.925781 29.355469 26.214844 29.644531 26.625 29.644531 L 39.183594 29.644531 Z M 42.53125 21.796875 L 40.296875 17.210938 C 40.132812 16.839844 39.71875 16.714844 39.390625 16.878906 C 39.390625 16.878906 39.347656 16.878906 39.347656 16.921875 L 31.085938 21.917969 C 30.757812 22.082031 30.675781 22.496094 30.839844 22.828125 L 33.730469 28.199219 L 27.328125 28.199219 L 27.328125 25.347656 C 27.328125 24.933594 27.039062 24.644531 26.625 24.644531 C 26.417969 24.644531 26.253906 24.730469 26.128906 24.894531 L 19.234375 32.742188 C 19.027344 32.988281 18.984375 33.359375 19.191406 33.648438 L 26.089844 42.902344 C 26.335938 43.234375 26.75 43.273438 27.039062 43.027344 C 27.207031 42.902344 27.285156 42.699219 27.285156 42.449219 L 27.285156 40.300781 L 32.121094 40.300781 C 33.816406 40.339844 35.382812 39.394531 36.167969 37.824219 L 41 29.273438 L 42.449219 26.875 C 43.355469 25.304688 43.398438 23.363281 42.53125 21.796875 " fill-opacity="1" fill-rule="nonzero"/></g><g clip-path="url(#91d061d8d3)"><path fill="#df2929" d="M 14.523438 21.175781 C 14.191406 21.050781 13.863281 21.175781 13.695312 21.464844 L 7.75 32.203125 L 4.527344 26.421875 C 3.949219 25.304688 3.949219 23.941406 4.566406 22.828125 L 7.128906 17.496094 C 7.292969 17.167969 7.167969 16.753906 6.878906 16.589844 L 4.734375 15.226562 L 13.117188 14.691406 L 16.339844 21.917969 Z M 15.597656 30.34375 L 15.597656 38.894531 L 13.53125 38.894531 C 12.25 38.894531 11.054688 38.195312 10.433594 37.035156 L 8.53125 33.648438 L 10.472656 30.34375 Z M 18.28125 22.910156 L 14.152344 13.65625 C 14.027344 13.410156 13.777344 13.246094 13.488281 13.246094 L 2.503906 13.945312 C 2.128906 13.988281 1.839844 14.316406 1.839844 14.691406 C 1.839844 14.9375 1.964844 15.144531 2.171875 15.269531 L 5.558594 17.457031 L 3.285156 22.167969 C 2.460938 23.695312 2.460938 25.59375 3.285156 27.125 L 7.128906 33.980469 L 9.234375 37.742188 C 10.144531 39.308594 11.753906 40.300781 13.53125 40.300781 L 16.300781 40.300781 C 16.671875 40.300781 17 39.96875 17 39.597656 L 17 29.601562 C 17 29.1875 16.710938 28.898438 16.300781 28.898438 L 11.136719 28.898438 L 14.566406 22.746094 L 17.414062 23.859375 C 17.785156 23.984375 18.15625 23.820312 18.324219 23.449219 C 18.363281 23.28125 18.363281 23.078125 18.28125 22.910156 " fill-opacity="1" fill-rule="nonzero"/></g></svg>