<svg xmlns="http://www.w3.org/2000/svg" xmlns:xlink="http://www.w3.org/1999/xlink" width="60" zoomAndPan="magnify" viewBox="0 0 45 44.999999" height="60" preserveAspectRatio="xMidYMid meet" version="1.0"><defs><clipPath id="b5467ae9b5"><path d="M 3.710938 2.925781 L 41.210938 2.925781 L 41.210938 40.425781 L 3.710938 40.425781 Z M 3.710938 2.925781 " clip-rule="nonzero"/></clipPath><clipPath id="3c743ff82a"><path d="M 3.261719 2.476562 L 41.511719 2.476562 L 41.511719 40.726562 L 3.261719 40.726562 Z M 3.261719 2.476562 " clip-rule="nonzero"/></clipPath></defs><g clip-path="url(#b5467ae9b5)"><path fill="#df2929" d="M 22.496094 2.925781 C 32.828125 2.925781 41.28125 11.378906 41.28125 21.710938 C 41.28125 32.042969 32.828125 40.496094 22.496094 40.496094 C 12.164062 40.496094 3.710938 32.042969 3.710938 21.710938 C 3.710938 11.378906 12.164062 2.925781 22.496094 2.925781 Z M 22.496094 4.3125 C 12.929688 4.3125 5.101562 12.140625 5.101562 21.710938 C 5.101562 31.277344 12.929688 39.109375 22.496094 39.109375 C 32.066406 39.109375 39.894531 31.277344 39.894531 21.710938 C 39.894531 12.140625 32.066406 4.3125 22.496094 4.3125 " fill-opacity="1" fill-rule="evenodd"/></g><path fill="#df2929" d="M 22.515625 15.25 L 30.457031 15.25 C 30.648438 15.25 30.804688 15.40625 30.804688 15.597656 C 30.804688 15.621094 30.800781 15.640625 30.796875 15.660156 L 29.304688 32.492188 L 28.960938 32.460938 L 29.304688 32.492188 C 29.289062 32.671875 29.136719 32.808594 28.960938 32.808594 L 16.066406 32.808594 C 15.875 32.808594 15.722656 32.652344 15.722656 32.460938 L 14.226562 15.628906 C 14.207031 15.4375 14.347656 15.269531 14.539062 15.253906 C 14.550781 15.253906 14.5625 15.25 14.570312 15.25 Z M 30.078125 15.945312 L 14.949219 15.945312 L 16.382812 32.113281 L 28.644531 32.113281 L 30.078125 15.945312 " fill-opacity="1" fill-rule="nonzero"/><path fill="#df2929" d="M 27.101562 18.515625 C 27.113281 18.328125 26.96875 18.164062 26.777344 18.148438 C 26.585938 18.136719 26.421875 18.285156 26.410156 18.472656 L 25.714844 29.542969 C 25.703125 29.734375 25.847656 29.898438 26.039062 29.910156 C 26.230469 29.921875 26.394531 29.777344 26.40625 29.585938 L 27.101562 18.515625 " fill-opacity="1" fill-rule="nonzero"/><path fill="#df2929" d="M 18.617188 18.472656 C 18.605469 18.285156 18.441406 18.136719 18.25 18.148438 C 18.058594 18.164062 17.914062 18.328125 17.925781 18.515625 L 18.621094 29.585938 C 18.632812 29.777344 18.796875 29.921875 18.988281 29.910156 C 19.179688 29.898438 19.324219 29.734375 19.3125 29.542969 L 18.617188 18.472656 " fill-opacity="1" fill-rule="nonzero"/><path fill="#df2929" d="M 22.804688 18.496094 C 22.804688 18.304688 22.648438 18.148438 22.457031 18.148438 C 22.265625 18.148438 22.113281 18.304688 22.113281 18.496094 L 22.113281 29.5625 C 22.113281 29.753906 22.265625 29.910156 22.457031 29.910156 C 22.648438 29.910156 22.804688 29.753906 22.804688 29.5625 L 22.804688 18.496094 " fill-opacity="1" fill-rule="nonzero"/><path fill="#df2929" d="M 13.324219 15.25 L 31.671875 15.25 L 31.671875 13.390625 L 13.324219 13.390625 Z M 32.019531 15.945312 L 12.976562 15.945312 C 12.785156 15.945312 12.628906 15.789062 12.628906 15.597656 L 12.628906 13.042969 C 12.628906 12.851562 12.785156 12.695312 12.976562 12.695312 L 32.019531 12.695312 C 32.210938 12.695312 32.367188 12.851562 32.367188 13.042969 L 32.367188 15.597656 C 32.367188 15.789062 32.210938 15.945312 32.019531 15.945312 " fill-opacity="1" fill-rule="nonzero"/><path fill="#df2929" d="M 25.914062 13.390625 L 19.078125 13.390625 C 18.886719 13.390625 18.734375 13.234375 18.734375 13.042969 L 18.734375 10.960938 C 18.734375 10.769531 18.886719 10.613281 19.078125 10.613281 L 25.914062 10.613281 C 26.105469 10.613281 26.261719 10.769531 26.261719 10.960938 L 26.261719 13.042969 C 26.261719 13.234375 26.105469 13.390625 25.914062 13.390625 Z M 19.425781 12.695312 L 25.570312 12.695312 L 25.570312 11.304688 L 19.425781 11.304688 L 19.425781 12.695312 " fill-opacity="1" fill-rule="nonzero"/><g clip-path="url(#3c743ff82a)"><path fill="#df2929" d="M 22.5 2.476562 C 33.078125 2.476562 41.734375 11.132812 41.734375 21.710938 C 41.734375 32.292969 33.078125 40.949219 22.5 40.949219 C 11.917969 40.949219 3.261719 32.292969 3.261719 21.710938 C 3.261719 11.132812 11.917969 2.476562 22.5 2.476562 Z M 22.5 3.894531 C 12.699219 3.894531 4.683594 11.914062 4.683594 21.710938 C 4.683594 31.511719 12.699219 39.527344 22.5 39.527344 C 32.296875 39.527344 40.316406 31.511719 40.316406 21.710938 C 40.316406 11.914062 32.296875 3.894531 22.5 3.894531 " fill-opacity="1" fill-rule="evenodd"/></g><path fill="#df2929" d="M 22.515625 15.097656 L 30.648438 15.097656 C 30.84375 15.097656 31.003906 15.257812 31.003906 15.453125 C 31.003906 15.476562 31.003906 15.496094 31 15.515625 L 29.46875 32.75 L 29.117188 32.71875 L 29.46875 32.75 C 29.453125 32.9375 29.296875 33.074219 29.117188 33.074219 L 15.914062 33.074219 C 15.71875 33.074219 15.558594 32.917969 15.558594 32.71875 L 14.03125 15.484375 L 14.027344 15.484375 C 14.011719 15.289062 14.15625 15.117188 14.351562 15.097656 C 14.359375 15.097656 14.371094 15.097656 14.382812 15.097656 Z M 30.261719 15.808594 L 14.769531 15.808594 L 16.238281 32.367188 L 28.792969 32.367188 L 30.261719 15.808594 " fill-opacity="1" fill-rule="nonzero"/><path fill="#df2929" d="M 27.214844 18.441406 C 27.226562 18.246094 27.078125 18.078125 26.882812 18.066406 C 26.6875 18.054688 26.519531 18.203125 26.503906 18.398438 L 25.796875 29.730469 C 25.78125 29.925781 25.929688 30.09375 26.125 30.109375 C 26.320312 30.121094 26.492188 29.972656 26.503906 29.777344 L 27.214844 18.441406 " fill-opacity="1" fill-rule="nonzero"/><path fill="#df2929" d="M 18.523438 18.398438 C 18.511719 18.203125 18.34375 18.054688 18.148438 18.066406 C 17.953125 18.078125 17.804688 18.246094 17.816406 18.441406 L 18.527344 29.777344 C 18.539062 29.972656 18.707031 30.121094 18.902344 30.109375 C 19.097656 30.09375 19.246094 29.925781 19.234375 29.730469 L 18.523438 18.398438 " fill-opacity="1" fill-rule="nonzero"/><path fill="#df2929" d="M 22.8125 18.417969 C 22.8125 18.222656 22.65625 18.066406 22.457031 18.066406 C 22.261719 18.066406 22.101562 18.222656 22.101562 18.417969 L 22.101562 29.753906 C 22.101562 29.949219 22.261719 30.109375 22.457031 30.109375 C 22.65625 30.109375 22.8125 29.949219 22.8125 29.753906 L 22.8125 18.417969 " fill-opacity="1" fill-rule="nonzero"/><path fill="#df2929" d="M 13.101562 15.097656 L 31.894531 15.097656 L 31.894531 13.191406 L 13.101562 13.191406 Z M 32.25 15.808594 L 12.75 15.808594 C 12.550781 15.808594 12.394531 15.648438 12.394531 15.453125 L 12.394531 12.835938 C 12.394531 12.640625 12.550781 12.480469 12.75 12.480469 L 32.25 12.480469 C 32.445312 12.480469 32.605469 12.640625 32.605469 12.835938 L 32.605469 15.453125 C 32.605469 15.648438 32.445312 15.808594 32.25 15.808594 " fill-opacity="1" fill-rule="nonzero"/><path fill="#df2929" d="M 26 13.191406 L 19 13.191406 C 18.800781 13.191406 18.644531 13.03125 18.644531 12.835938 L 18.644531 10.703125 C 18.644531 10.507812 18.800781 10.347656 19 10.347656 L 26 10.347656 C 26.195312 10.347656 26.355469 10.507812 26.355469 10.703125 L 26.355469 12.835938 C 26.355469 13.03125 26.195312 13.191406 26 13.191406 Z M 19.355469 12.480469 L 25.644531 12.480469 L 25.644531 11.058594 L 19.355469 11.058594 L 19.355469 12.480469 " fill-opacity="1" fill-rule="nonzero"/></svg>