<svg xmlns="http://www.w3.org/2000/svg" xmlns:xlink="http://www.w3.org/1999/xlink" width="60" zoomAndPan="magnify" viewBox="0 0 45 44.999999" height="60" preserveAspectRatio="xMidYMid meet" version="1.0"><defs><clipPath id="12c945fc5a"><path d="M 4.5 39 L 40.5 39 L 40.5 40.5 L 4.5 40.5 Z M 4.5 39 " clip-rule="nonzero"/></clipPath><clipPath id="3a232c5cde"><path d="M 17 4.5 L 38 4.5 L 38 15 L 17 15 Z M 17 4.5 " clip-rule="nonzero"/></clipPath><clipPath id="ddd687fa00"><path d="M 4.5 7 L 15 7 L 15 28 L 4.5 28 Z M 4.5 7 " clip-rule="nonzero"/></clipPath><clipPath id="355cf7ab11"><path d="M 30 15 L 40.5 15 L 40.5 36 L 30 36 Z M 30 15 " clip-rule="nonzero"/></clipPath><clipPath id="85c19d35af"><path d="M 4.5 14 L 40.5 14 L 40.5 37 L 4.5 37 Z M 4.5 14 " clip-rule="nonzero"/></clipPath><clipPath id="9d27721c88"><path d="M 4.5 39 L 40.5 39 L 40.5 40.5 L 4.5 40.5 Z M 4.5 39 " clip-rule="nonzero"/></clipPath><clipPath id="f58c894311"><path d="M 17 4.5 L 38 4.5 L 38 15 L 17 15 Z M 17 4.5 " clip-rule="nonzero"/></clipPath><clipPath id="f2852d4fba"><path d="M 4.5 7 L 15 7 L 15 28 L 4.5 28 Z M 4.5 7 " clip-rule="nonzero"/></clipPath><clipPath id="61d34bed64"><path d="M 30 15 L 40.5 15 L 40.5 36 L 30 36 Z M 30 15 " clip-rule="nonzero"/></clipPath><clipPath id="9033570d3a"><path d="M 4.5 14 L 40.5 14 L 40.5 37 L 4.5 37 Z M 4.5 14 " clip-rule="nonzero"/></clipPath></defs><g clip-path="url(#12c945fc5a)"><path fill="#df2929" d="M 4.5 40.347656 L 40.347656 40.347656 L 40.347656 39.191406 L 4.5 39.191406 L 4.5 40.347656 " fill-opacity="1" fill-rule="nonzero"/></g><g clip-path="url(#3a232c5cde)"><path fill="#df2929" d="M 18.375 6.148438 C 19.695312 5.820312 21.054688 5.65625 22.421875 5.65625 C 26.75 5.65625 30.863281 7.304688 33.996094 10.292969 L 34.402344 10.683594 L 34.828125 10.257812 L 35.503906 12.957031 L 32.804688 12.28125 L 33.585938 11.496094 L 33.160156 11.089844 C 30.246094 8.332031 26.433594 6.8125 22.421875 6.8125 C 21.050781 6.8125 19.691406 6.992188 18.375 7.339844 Z M 18.53125 8.496094 C 19.792969 8.148438 21.101562 7.96875 22.421875 7.96875 C 25.941406 7.96875 29.289062 9.230469 31.921875 11.527344 L 30.542969 12.910156 L 37.09375 14.546875 L 35.457031 7.992188 L 34.378906 9.074219 C 31.082031 6.121094 26.863281 4.5 22.421875 4.5 C 20.800781 4.5 19.195312 4.71875 17.644531 5.144531 L 17.21875 5.261719 L 17.21875 8.574219 L 18.402344 8.519531 L 18.53125 8.496094 " fill-opacity="1" fill-rule="nonzero"/></g><g clip-path="url(#ddd687fa00)"><path fill="#df2929" d="M 10.292969 10.851562 L 10.683594 10.445312 L 10.257812 10.019531 L 12.957031 9.34375 L 12.28125 12.042969 L 11.496094 11.257812 L 11.089844 11.6875 C 8.332031 14.601562 6.8125 18.414062 6.8125 22.421875 C 6.8125 23.796875 6.992188 25.15625 7.34375 26.472656 L 6.148438 26.472656 C 5.820312 25.152344 5.65625 23.792969 5.65625 22.421875 C 5.65625 18.097656 7.304688 13.984375 10.292969 10.851562 Z M 5.144531 27.203125 L 5.261719 27.628906 L 8.574219 27.628906 L 8.519531 26.445312 L 8.5 26.316406 C 8.148438 25.054688 7.96875 23.746094 7.96875 22.421875 C 7.96875 18.910156 9.230469 15.558594 11.527344 12.925781 L 12.910156 14.304688 L 14.546875 7.753906 L 7.992188 9.390625 L 9.074219 10.46875 C 6.121094 13.765625 4.5 17.984375 4.5 22.421875 C 4.5 24.046875 4.71875 25.652344 5.144531 27.203125 " fill-opacity="1" fill-rule="nonzero"/></g><g clip-path="url(#355cf7ab11)"><path fill="#df2929" d="M 38.699219 16.640625 C 39.027344 17.960938 39.191406 19.320312 39.191406 20.6875 C 39.191406 25.015625 37.542969 29.128906 34.554688 32.261719 L 34.164062 32.667969 L 34.589844 33.09375 L 31.890625 33.769531 L 32.566406 31.070312 L 33.351562 31.855469 L 33.757812 31.425781 C 36.515625 28.511719 38.035156 24.699219 38.035156 20.6875 C 38.035156 19.316406 37.855469 17.957031 37.507812 16.640625 Z M 36.328125 16.667969 L 36.351562 16.796875 C 36.699219 18.058594 36.878906 19.367188 36.878906 20.6875 C 36.878906 24.203125 35.617188 27.554688 33.320312 30.1875 L 31.9375 28.808594 L 30.300781 35.359375 L 36.855469 33.722656 L 35.773438 32.644531 C 38.726562 29.347656 40.347656 25.128906 40.347656 20.6875 C 40.347656 19.066406 40.128906 17.460938 39.703125 15.910156 L 39.585938 15.484375 L 36.273438 15.484375 L 36.328125 16.667969 " fill-opacity="1" fill-rule="nonzero"/></g><path fill="#df2929" d="M 16.640625 26.472656 L 16.640625 27.628906 L 17.796875 27.628906 L 17.796875 26.472656 L 16.640625 26.472656 " fill-opacity="1" fill-rule="nonzero"/><path fill="#df2929" d="M 12.015625 27.628906 L 13.171875 27.628906 L 13.171875 26.472656 L 12.015625 26.472656 L 12.015625 27.628906 " fill-opacity="1" fill-rule="nonzero"/><path fill="#df2929" d="M 14.328125 27.628906 L 15.484375 27.628906 L 15.484375 26.472656 L 14.328125 26.472656 L 14.328125 27.628906 " fill-opacity="1" fill-rule="nonzero"/><path fill="#df2929" d="M 14.328125 29.941406 L 15.484375 29.941406 L 15.484375 28.785156 L 14.328125 28.785156 L 14.328125 29.941406 " fill-opacity="1" fill-rule="nonzero"/><path fill="#df2929" d="M 12.015625 29.941406 L 13.171875 29.941406 L 13.171875 28.785156 L 12.015625 28.785156 L 12.015625 29.941406 " fill-opacity="1" fill-rule="nonzero"/><path fill="#df2929" d="M 16.640625 29.941406 L 17.796875 29.941406 L 17.796875 28.785156 L 16.640625 28.785156 L 16.640625 29.941406 " fill-opacity="1" fill-rule="nonzero"/><path fill="#df2929" d="M 14.328125 32.253906 L 15.484375 32.253906 L 15.484375 31.097656 L 14.328125 31.097656 L 14.328125 32.253906 " fill-opacity="1" fill-rule="nonzero"/><path fill="#df2929" d="M 16.640625 32.253906 L 17.796875 32.253906 L 17.796875 31.097656 L 16.640625 31.097656 L 16.640625 32.253906 " fill-opacity="1" fill-rule="nonzero"/><path fill="#df2929" d="M 12.015625 32.253906 L 13.171875 32.253906 L 13.171875 31.097656 L 12.015625 31.097656 L 12.015625 32.253906 " fill-opacity="1" fill-rule="nonzero"/><path fill="#df2929" d="M 12.015625 34.566406 L 13.171875 34.566406 L 13.171875 33.410156 L 12.015625 33.410156 L 12.015625 34.566406 " fill-opacity="1" fill-rule="nonzero"/><path fill="#df2929" d="M 16.640625 34.566406 L 17.796875 34.566406 L 17.796875 33.410156 L 16.640625 33.410156 L 16.640625 34.566406 " fill-opacity="1" fill-rule="nonzero"/><path fill="#df2929" d="M 14.328125 34.566406 L 15.484375 34.566406 L 15.484375 33.410156 L 14.328125 33.410156 L 14.328125 34.566406 " fill-opacity="1" fill-rule="nonzero"/><path fill="#df2929" d="M 13.171875 23.003906 L 14.328125 23.003906 L 14.328125 21.84375 L 13.171875 21.84375 L 13.171875 23.003906 " fill-opacity="1" fill-rule="nonzero"/><path fill="#df2929" d="M 17.796875 23.003906 L 18.953125 23.003906 L 18.953125 21.84375 L 17.796875 21.84375 L 17.796875 23.003906 " fill-opacity="1" fill-rule="nonzero"/><path fill="#df2929" d="M 15.484375 23.003906 L 16.640625 23.003906 L 16.640625 21.84375 L 15.484375 21.84375 L 15.484375 23.003906 " fill-opacity="1" fill-rule="nonzero"/><path fill="#df2929" d="M 21.265625 21.84375 L 20.109375 21.84375 L 20.109375 23.003906 L 21.265625 23.003906 L 21.265625 21.84375 " fill-opacity="1" fill-rule="nonzero"/><path fill="#df2929" d="M 17.796875 20.6875 L 18.953125 20.6875 L 18.953125 19.53125 L 17.796875 19.53125 L 17.796875 20.6875 " fill-opacity="1" fill-rule="nonzero"/><path fill="#df2929" d="M 21.265625 19.53125 L 20.109375 19.53125 L 20.109375 20.6875 L 21.265625 20.6875 L 21.265625 19.53125 " fill-opacity="1" fill-rule="nonzero"/><path fill="#df2929" d="M 15.484375 20.6875 L 16.640625 20.6875 L 16.640625 19.53125 L 15.484375 19.53125 L 15.484375 20.6875 " fill-opacity="1" fill-rule="nonzero"/><path fill="#df2929" d="M 13.171875 20.6875 L 14.328125 20.6875 L 14.328125 19.53125 L 13.171875 19.53125 L 13.171875 20.6875 " fill-opacity="1" fill-rule="nonzero"/><path fill="#df2929" d="M 13.171875 18.375 L 14.328125 18.375 L 14.328125 17.21875 L 13.171875 17.21875 L 13.171875 18.375 " fill-opacity="1" fill-rule="nonzero"/><path fill="#df2929" d="M 17.796875 18.375 L 18.953125 18.375 L 18.953125 17.21875 L 17.796875 17.21875 L 17.796875 18.375 " fill-opacity="1" fill-rule="nonzero"/><path fill="#df2929" d="M 15.484375 18.375 L 16.640625 18.375 L 16.640625 17.21875 L 15.484375 17.21875 L 15.484375 18.375 " fill-opacity="1" fill-rule="nonzero"/><path fill="#df2929" d="M 21.265625 17.21875 L 20.109375 17.21875 L 20.109375 18.375 L 21.265625 18.375 L 21.265625 17.21875 " fill-opacity="1" fill-rule="nonzero"/><g clip-path="url(#85c19d35af)"><path fill="#df2929" d="M 10.859375 25.316406 L 18.953125 25.316406 L 18.953125 35.722656 L 10.859375 35.722656 Z M 12.015625 16.0625 L 22.421875 16.0625 L 22.421875 35.722656 L 20.109375 35.722656 L 20.109375 24.160156 L 12.015625 24.160156 Z M 26.472656 20.6875 L 28.207031 20.6875 L 28.207031 23.066406 C 27.46875 22.3125 26.445312 21.84375 25.316406 21.84375 L 23.582031 21.84375 L 23.582031 19.46875 C 24.316406 20.222656 25.339844 20.6875 26.472656 20.6875 Z M 25.316406 17.21875 C 26.710938 17.21875 27.878906 18.214844 28.148438 19.53125 L 26.472656 19.53125 C 25.074219 19.53125 23.90625 18.539062 23.640625 17.21875 Z M 23.640625 23.003906 L 25.316406 23.003906 C 26.710938 23.003906 27.878906 23.996094 28.148438 25.316406 L 26.472656 25.316406 C 25.074219 25.316406 23.90625 24.320312 23.640625 23.003906 Z M 28.207031 35.722656 L 23.582031 35.722656 L 23.582031 25.25 C 24.316406 26.003906 25.339844 26.472656 26.472656 26.472656 L 28.207031 26.472656 Z M 32.253906 19.53125 L 33.929688 19.53125 C 33.660156 20.851562 32.492188 21.84375 31.097656 21.84375 L 29.421875 21.84375 C 29.691406 20.527344 30.855469 19.53125 32.253906 19.53125 Z M 32.253906 25.316406 L 33.929688 25.316406 C 33.660156 26.632812 32.492188 27.628906 31.097656 27.628906 L 29.421875 27.628906 C 29.691406 26.308594 30.855469 25.316406 32.253906 25.316406 Z M 29.363281 28.785156 L 31.097656 28.785156 C 33.328125 28.785156 35.144531 26.96875 35.144531 24.738281 L 35.144531 24.160156 L 32.253906 24.160156 C 31.121094 24.160156 30.097656 24.625 29.363281 25.378906 L 29.363281 23.003906 L 31.097656 23.003906 C 33.328125 23.003906 35.144531 21.1875 35.144531 18.953125 L 35.144531 18.375 L 32.253906 18.375 C 31.105469 18.375 30.070312 18.859375 29.332031 19.628906 C 29.089844 17.625 27.382812 16.0625 25.316406 16.0625 L 23.582031 16.0625 L 23.582031 14.90625 L 10.859375 14.90625 L 10.859375 24.160156 L 9.703125 24.160156 L 9.703125 35.722656 L 4.5 35.722656 L 4.5 36.878906 L 40.347656 36.878906 L 40.347656 35.722656 L 29.363281 35.722656 L 29.363281 28.785156 " fill-opacity="1" fill-rule="nonzero"/></g><g clip-path="url(#9d27721c88)"><path fill="#df2929" d="M 4.5 40.347656 L 40.347656 40.347656 L 40.347656 39.191406 L 4.5 39.191406 L 4.5 40.347656 " fill-opacity="1" fill-rule="nonzero"/></g><g clip-path="url(#f58c894311)"><path fill="#df2929" d="M 18.375 6.148438 C 19.695312 5.820312 21.054688 5.65625 22.421875 5.65625 C 26.75 5.65625 30.863281 7.304688 33.996094 10.292969 L 34.402344 10.683594 L 34.828125 10.257812 L 35.503906 12.957031 L 32.804688 12.28125 L 33.585938 11.496094 L 33.160156 11.089844 C 30.246094 8.332031 26.433594 6.8125 22.421875 6.8125 C 21.050781 6.8125 19.691406 6.992188 18.375 7.339844 Z M 18.53125 8.496094 C 19.792969 8.148438 21.101562 7.96875 22.421875 7.96875 C 25.941406 7.96875 29.289062 9.230469 31.921875 11.527344 L 30.542969 12.910156 L 37.09375 14.546875 L 35.457031 7.992188 L 34.378906 9.074219 C 31.082031 6.121094 26.863281 4.5 22.421875 4.5 C 20.800781 4.5 19.195312 4.71875 17.644531 5.144531 L 17.21875 5.261719 L 17.21875 8.574219 L 18.402344 8.519531 L 18.53125 8.496094 " fill-opacity="1" fill-rule="nonzero"/></g><g clip-path="url(#f2852d4fba)"><path fill="#df2929" d="M 10.292969 10.851562 L 10.683594 10.445312 L 10.257812 10.019531 L 12.957031 9.34375 L 12.28125 12.042969 L 11.496094 11.257812 L 11.089844 11.6875 C 8.332031 14.601562 6.8125 18.414062 6.8125 22.421875 C 6.8125 23.796875 6.992188 25.15625 7.34375 26.472656 L 6.148438 26.472656 C 5.820312 25.152344 5.65625 23.792969 5.65625 22.421875 C 5.65625 18.097656 7.304688 13.984375 10.292969 10.851562 Z M 5.144531 27.203125 L 5.261719 27.628906 L 8.574219 27.628906 L 8.519531 26.445312 L 8.5 26.316406 C 8.148438 25.054688 7.96875 23.746094 7.96875 22.421875 C 7.96875 18.910156 9.230469 15.558594 11.527344 12.925781 L 12.910156 14.304688 L 14.546875 7.753906 L 7.992188 9.390625 L 9.074219 10.46875 C 6.121094 13.765625 4.5 17.984375 4.5 22.421875 C 4.5 24.046875 4.71875 25.652344 5.144531 27.203125 " fill-opacity="1" fill-rule="nonzero"/></g><g clip-path="url(#61d34bed64)"><path fill="#df2929" d="M 38.699219 16.640625 C 39.027344 17.960938 39.191406 19.320312 39.191406 20.6875 C 39.191406 25.015625 37.542969 29.128906 34.554688 32.261719 L 34.164062 32.667969 L 34.589844 33.09375 L 31.890625 33.769531 L 32.566406 31.070312 L 33.351562 31.855469 L 33.757812 31.425781 C 36.515625 28.511719 38.035156 24.699219 38.035156 20.6875 C 38.035156 19.316406 37.855469 17.957031 37.507812 16.640625 Z M 36.328125 16.667969 L 36.351562 16.796875 C 36.699219 18.058594 36.878906 19.367188 36.878906 20.6875 C 36.878906 24.203125 35.617188 27.554688 33.320312 30.1875 L 31.9375 28.808594 L 30.300781 35.359375 L 36.855469 33.722656 L 35.773438 32.644531 C 38.726562 29.347656 40.347656 25.128906 40.347656 20.6875 C 40.347656 19.066406 40.128906 17.460938 39.703125 15.910156 L 39.585938 15.484375 L 36.273438 15.484375 L 36.328125 16.667969 " fill-opacity="1" fill-rule="nonzero"/></g><path fill="#df2929" d="M 16.640625 26.472656 L 16.640625 27.628906 L 17.796875 27.628906 L 17.796875 26.472656 L 16.640625 26.472656 " fill-opacity="1" fill-rule="nonzero"/><path fill="#df2929" d="M 12.015625 27.628906 L 13.171875 27.628906 L 13.171875 26.472656 L 12.015625 26.472656 L 12.015625 27.628906 " fill-opacity="1" fill-rule="nonzero"/><path fill="#df2929" d="M 14.328125 27.628906 L 15.484375 27.628906 L 15.484375 26.472656 L 14.328125 26.472656 L 14.328125 27.628906 " fill-opacity="1" fill-rule="nonzero"/><path fill="#df2929" d="M 14.328125 29.941406 L 15.484375 29.941406 L 15.484375 28.785156 L 14.328125 28.785156 L 14.328125 29.941406 " fill-opacity="1" fill-rule="nonzero"/><path fill="#df2929" d="M 12.015625 29.941406 L 13.171875 29.941406 L 13.171875 28.785156 L 12.015625 28.785156 L 12.015625 29.941406 " fill-opacity="1" fill-rule="nonzero"/><path fill="#df2929" d="M 16.640625 29.941406 L 17.796875 29.941406 L 17.796875 28.785156 L 16.640625 28.785156 L 16.640625 29.941406 " fill-opacity="1" fill-rule="nonzero"/><path fill="#df2929" d="M 14.328125 32.253906 L 15.484375 32.253906 L 15.484375 31.097656 L 14.328125 31.097656 L 14.328125 32.253906 " fill-opacity="1" fill-rule="nonzero"/><path fill="#df2929" d="M 16.640625 32.253906 L 17.796875 32.253906 L 17.796875 31.097656 L 16.640625 31.097656 L 16.640625 32.253906 " fill-opacity="1" fill-rule="nonzero"/><path fill="#df2929" d="M 12.015625 32.253906 L 13.171875 32.253906 L 13.171875 31.097656 L 12.015625 31.097656 L 12.015625 32.253906 " fill-opacity="1" fill-rule="nonzero"/><path fill="#df2929" d="M 12.015625 34.566406 L 13.171875 34.566406 L 13.171875 33.410156 L 12.015625 33.410156 L 12.015625 34.566406 " fill-opacity="1" fill-rule="nonzero"/><path fill="#df2929" d="M 16.640625 34.566406 L 17.796875 34.566406 L 17.796875 33.410156 L 16.640625 33.410156 L 16.640625 34.566406 " fill-opacity="1" fill-rule="nonzero"/><path fill="#df2929" d="M 14.328125 34.566406 L 15.484375 34.566406 L 15.484375 33.410156 L 14.328125 33.410156 L 14.328125 34.566406 " fill-opacity="1" fill-rule="nonzero"/><path fill="#df2929" d="M 13.171875 23.003906 L 14.328125 23.003906 L 14.328125 21.84375 L 13.171875 21.84375 L 13.171875 23.003906 " fill-opacity="1" fill-rule="nonzero"/><path fill="#df2929" d="M 17.796875 23.003906 L 18.953125 23.003906 L 18.953125 21.84375 L 17.796875 21.84375 L 17.796875 23.003906 " fill-opacity="1" fill-rule="nonzero"/><path fill="#df2929" d="M 15.484375 23.003906 L 16.640625 23.003906 L 16.640625 21.84375 L 15.484375 21.84375 L 15.484375 23.003906 " fill-opacity="1" fill-rule="nonzero"/><path fill="#df2929" d="M 21.265625 21.84375 L 20.109375 21.84375 L 20.109375 23.003906 L 21.265625 23.003906 L 21.265625 21.84375 " fill-opacity="1" fill-rule="nonzero"/><path fill="#df2929" d="M 17.796875 20.6875 L 18.953125 20.6875 L 18.953125 19.53125 L 17.796875 19.53125 L 17.796875 20.6875 " fill-opacity="1" fill-rule="nonzero"/><path fill="#df2929" d="M 21.265625 19.53125 L 20.109375 19.53125 L 20.109375 20.6875 L 21.265625 20.6875 L 21.265625 19.53125 " fill-opacity="1" fill-rule="nonzero"/><path fill="#df2929" d="M 15.484375 20.6875 L 16.640625 20.6875 L 16.640625 19.53125 L 15.484375 19.53125 L 15.484375 20.6875 " fill-opacity="1" fill-rule="nonzero"/><path fill="#df2929" d="M 13.171875 20.6875 L 14.328125 20.6875 L 14.328125 19.53125 L 13.171875 19.53125 L 13.171875 20.6875 " fill-opacity="1" fill-rule="nonzero"/><path fill="#df2929" d="M 13.171875 18.375 L 14.328125 18.375 L 14.328125 17.21875 L 13.171875 17.21875 L 13.171875 18.375 " fill-opacity="1" fill-rule="nonzero"/><path fill="#df2929" d="M 17.796875 18.375 L 18.953125 18.375 L 18.953125 17.21875 L 17.796875 17.21875 L 17.796875 18.375 " fill-opacity="1" fill-rule="nonzero"/><path fill="#df2929" d="M 15.484375 18.375 L 16.640625 18.375 L 16.640625 17.21875 L 15.484375 17.21875 L 15.484375 18.375 " fill-opacity="1" fill-rule="nonzero"/><path fill="#df2929" d="M 21.265625 17.21875 L 20.109375 17.21875 L 20.109375 18.375 L 21.265625 18.375 L 21.265625 17.21875 " fill-opacity="1" fill-rule="nonzero"/><g clip-path="url(#9033570d3a)"><path fill="#df2929" d="M 10.859375 25.316406 L 18.953125 25.316406 L 18.953125 35.722656 L 10.859375 35.722656 Z M 12.015625 16.0625 L 22.421875 16.0625 L 22.421875 35.722656 L 20.109375 35.722656 L 20.109375 24.160156 L 12.015625 24.160156 Z M 26.472656 20.6875 L 28.207031 20.6875 L 28.207031 23.066406 C 27.46875 22.3125 26.445312 21.84375 25.316406 21.84375 L 23.582031 21.84375 L 23.582031 19.46875 C 24.316406 20.222656 25.339844 20.6875 26.472656 20.6875 Z M 25.316406 17.21875 C 26.710938 17.21875 27.878906 18.214844 28.148438 19.53125 L 26.472656 19.53125 C 25.074219 19.53125 23.90625 18.539062 23.640625 17.21875 Z M 23.640625 23.003906 L 25.316406 23.003906 C 26.710938 23.003906 27.878906 23.996094 28.148438 25.316406 L 26.472656 25.316406 C 25.074219 25.316406 23.90625 24.320312 23.640625 23.003906 Z M 28.207031 35.722656 L 23.582031 35.722656 L 23.582031 25.25 C 24.316406 26.003906 25.339844 26.472656 26.472656 26.472656 L 28.207031 26.472656 Z M 32.253906 19.53125 L 33.929688 19.53125 C 33.660156 20.851562 32.492188 21.84375 31.097656 21.84375 L 29.421875 21.84375 C 29.691406 20.527344 30.855469 19.53125 32.253906 19.53125 Z M 32.253906 25.316406 L 33.929688 25.316406 C 33.660156 26.632812 32.492188 27.628906 31.097656 27.628906 L 29.421875 27.628906 C 29.691406 26.308594 30.855469 25.316406 32.253906 25.316406 Z M 29.363281 28.785156 L 31.097656 28.785156 C 33.328125 28.785156 35.144531 26.96875 35.144531 24.738281 L 35.144531 24.160156 L 32.253906 24.160156 C 31.121094 24.160156 30.097656 24.625 29.363281 25.378906 L 29.363281 23.003906 L 31.097656 23.003906 C 33.328125 23.003906 35.144531 21.1875 35.144531 18.953125 L 35.144531 18.375 L 32.253906 18.375 C 31.105469 18.375 30.070312 18.859375 29.332031 19.628906 C 29.089844 17.625 27.382812 16.0625 25.316406 16.0625 L 23.582031 16.0625 L 23.582031 14.90625 L 10.859375 14.90625 L 10.859375 24.160156 L 9.703125 24.160156 L 9.703125 35.722656 L 4.5 35.722656 L 4.5 36.878906 L 40.347656 36.878906 L 40.347656 35.722656 L 29.363281 35.722656 L 29.363281 28.785156 " fill-opacity="1" fill-rule="nonzero"/></g></svg>