<svg xmlns="http://www.w3.org/2000/svg" xmlns:xlink="http://www.w3.org/1999/xlink" width="60" zoomAndPan="magnify" viewBox="0 0 45 44.999999" height="60" preserveAspectRatio="xMidYMid meet" version="1.0"><path fill="#df2929" d="M 15.828125 33.992188 C 13.707031 32.488281 12.136719 30.539062 11.121094 28.140625 C 11.046875 27.960938 11.046875 27.78125 11.121094 27.601562 C 11.195312 27.425781 11.320312 27.296875 11.5 27.222656 C 11.679688 27.144531 11.855469 27.144531 12.035156 27.214844 C 12.214844 27.289062 12.34375 27.414062 12.421875 27.589844 C 13.332031 29.738281 14.742188 31.488281 16.648438 32.839844 C 16.804688 32.953125 16.898438 33.105469 16.933594 33.296875 C 16.964844 33.488281 16.925781 33.664062 16.8125 33.820312 C 16.699219 33.980469 16.546875 34.074219 16.355469 34.109375 C 16.164062 34.140625 15.988281 34.101562 15.828125 33.992188 Z M 15.828125 33.992188 " fill-opacity="1" fill-rule="nonzero"/><path fill="#df2929" d="M 10.429688 26.035156 C 10.339844 25.664062 10.265625 25.28125 10.207031 24.898438 C 10.179688 24.707031 10.222656 24.535156 10.335938 24.378906 C 10.453125 24.222656 10.605469 24.128906 10.800781 24.101562 C 10.992188 24.070312 11.164062 24.113281 11.320312 24.226562 C 11.476562 24.34375 11.570312 24.496094 11.601562 24.6875 C 11.65625 25.03125 11.722656 25.371094 11.800781 25.703125 C 11.847656 25.894531 11.820312 26.070312 11.71875 26.238281 C 11.617188 26.402344 11.46875 26.507812 11.28125 26.554688 C 11.09375 26.601562 10.914062 26.574219 10.746094 26.472656 C 10.582031 26.371094 10.476562 26.226562 10.429688 26.035156 Z M 10.429688 26.035156 " fill-opacity="1" fill-rule="nonzero"/><path fill="#df2929" d="M 18.851562 7.8125 C 18.667969 7.871094 18.53125 7.988281 18.445312 8.160156 C 18.355469 8.335938 18.34375 8.511719 18.402344 8.699219 C 18.460938 8.882812 18.578125 9.019531 18.75 9.109375 C 18.921875 9.195312 19.101562 9.210938 19.285156 9.15625 C 20.160156 8.875 21.054688 8.679688 21.96875 8.574219 C 21.53125 9.839844 22.128906 10.730469 23.148438 11.480469 C 23.292969 11.578125 23.429688 11.691406 23.558594 11.8125 C 23.578125 12.5625 22.128906 13.515625 21.242188 13.667969 C 18.667969 14.113281 16.621094 14.125 15.992188 15.285156 C 15.078125 16.980469 16.792969 18.359375 17.382812 19.066406 C 19.046875 21.058594 20 21.175781 21.652344 20.925781 C 23.152344 20.699219 23.175781 21.582031 24.945312 21.597656 C 25.738281 21.605469 26.203125 22.285156 26.800781 22.816406 C 27.492188 23.410156 28.246094 23.910156 29.058594 24.324219 C 30.371094 25.058594 29.777344 26.117188 29.257812 27.253906 C 27.839844 30.324219 25.828125 30.605469 23.796875 33.464844 C 23.386719 34.070312 23.128906 34.738281 23.023438 35.460938 C 22.589844 34.992188 22.3125 34.441406 22.191406 33.816406 C 21.792969 31.683594 25.164062 29.699219 21.359375 27.199219 C 20.75 26.890625 20.296875 26.425781 20.003906 25.8125 C 19.515625 24.601562 20.433594 24.28125 19.824219 22.59375 C 18.921875 20.082031 15.378906 19.421875 13.535156 17.175781 C 14.722656 16.238281 15.625 15.078125 16.246094 13.695312 C 17.03125 11.8125 17.167969 9.882812 16.648438 7.90625 C 16.605469 7.742188 16.527344 7.601562 16.410156 7.484375 C 16.292969 7.363281 16.15625 7.28125 15.992188 7.234375 C 15.832031 7.191406 15.671875 7.1875 15.507812 7.226562 C 15.34375 7.269531 15.203125 7.347656 15.082031 7.464844 C 12.613281 9.824219 11.082031 8.714844 8.566406 11.8125 C 7.636719 12.957031 6.867188 15.078125 8.476562 18.667969 L 8.484375 18.6875 C 8.332031 19.25 8.214844 19.820312 8.125 20.394531 C 8.066406 20.328125 8.011719 20.265625 7.953125 20.207031 C 7.5625 17.5625 6.289062 15.527344 3.613281 15.847656 C 2.84375 15.984375 2.089844 15.921875 1.351562 15.65625 C 1.003906 15.519531 0.691406 15.574219 0.410156 15.816406 C 0.128906 16.058594 0.0273438 16.359375 0.105469 16.722656 C 0.269531 17.488281 0.574219 18.191406 1.019531 18.835938 C 1.460938 19.476562 2.011719 20.011719 2.667969 20.4375 C 4.011719 21.28125 5.460938 21.5625 7.023438 21.285156 C 7.484375 21.746094 7.785156 22.296875 7.933594 22.933594 C 7.941406 25.046875 8.359375 27.074219 9.1875 29.015625 C 9.265625 29.195312 9.394531 29.320312 9.574219 29.394531 C 9.753906 29.464844 9.933594 29.464844 10.113281 29.386719 C 10.292969 29.3125 10.417969 29.183594 10.492188 29.003906 C 10.5625 28.820312 10.5625 28.640625 10.488281 28.464844 C 9.859375 26.984375 9.488281 25.445312 9.378906 23.847656 C 9.265625 22.246094 9.417969 20.667969 9.832031 19.121094 C 10.726562 18.847656 11.570312 18.46875 12.371094 17.984375 C 14.4375 20.574219 17.800781 21.148438 18.496094 23.074219 C 18.917969 24.253906 18.007812 24.640625 18.691406 26.339844 C 19.09375 27.230469 19.722656 27.910156 20.582031 28.378906 C 23.410156 30.234375 20.226562 31.007812 20.800781 34.074219 C 21 35.1875 21.539062 36.09375 22.425781 36.792969 C 23.242188 37.332031 24.125 37.136719 24.417969 35.699219 C 24.488281 35.1875 24.667969 34.714844 24.949219 34.28125 C 26.832031 31.628906 28.964844 31.257812 30.539062 27.84375 C 31.496094 25.878906 31.722656 24.199219 29.746094 23.09375 C 29.023438 22.726562 28.355469 22.28125 27.738281 21.757812 C 26.855469 20.980469 26.386719 20.195312 24.957031 20.183594 C 23.433594 20.167969 23.554688 19.210938 21.441406 19.527344 C 20.296875 19.703125 19.804688 19.765625 18.46875 18.160156 C 17.949219 17.539062 16.851562 16.671875 17.234375 15.957031 C 17.5 15.558594 19.835938 15.347656 21.480469 15.0625 C 22.722656 14.847656 25.015625 13.53125 24.972656 11.777344 C 24.894531 11.128906 24.5625 10.648438 23.984375 10.34375 C 22.90625 9.550781 23.242188 9.347656 23.515625 8.464844 C 23.820312 8.457031 24.125 8.464844 24.429688 8.496094 C 25.144531 9.722656 26.789062 11.03125 28.316406 10.742188 C 28.914062 10.59375 29.421875 10.296875 29.847656 9.847656 C 30.492188 10.148438 31.113281 10.496094 31.707031 10.890625 C 31.597656 12.789062 32.945312 15.03125 35.46875 14.578125 C 35.601562 14.765625 35.726562 14.960938 35.847656 15.152344 C 35.289062 15.679688 34.914062 16.3125 34.730469 17.058594 C 34.449219 18.144531 34.800781 18.738281 35.046875 20.042969 C 35.558594 22.75 34.832031 24.246094 36.066406 24.769531 C 36.566406 24.949219 37.027344 24.875 37.449219 24.550781 C 37.621094 24.453125 37.828125 24.320312 38.007812 24.382812 C 37.929688 25.082031 37.804688 25.777344 37.625 26.457031 C 37.449219 27.140625 37.222656 27.808594 36.945312 28.457031 C 36.667969 29.105469 36.347656 29.734375 35.980469 30.335938 C 35.609375 30.9375 35.199219 31.507812 34.75 32.050781 C 34.296875 32.59375 33.804688 33.097656 33.277344 33.566406 C 32.753906 34.035156 32.195312 34.464844 31.605469 34.851562 C 31.015625 35.238281 30.398438 35.582031 29.757812 35.878906 C 29.117188 36.175781 28.460938 36.421875 27.78125 36.621094 C 27.105469 36.824219 26.417969 36.972656 25.71875 37.070312 C 25.019531 37.167969 24.316406 37.214844 23.613281 37.210938 C 22.90625 37.203125 22.203125 37.148438 21.507812 37.039062 C 20.808594 36.929688 20.125 36.769531 19.449219 36.5625 C 18.777344 36.351562 18.121094 36.09375 17.484375 35.789062 C 16.847656 35.480469 16.238281 35.132812 15.65625 34.734375 C 15.070312 34.339844 14.519531 33.902344 14 33.425781 C 13.476562 32.949219 12.996094 32.433594 12.550781 31.886719 C 12.429688 31.738281 12.269531 31.652344 12.078125 31.632812 C 11.882812 31.613281 11.710938 31.667969 11.5625 31.789062 C 11.410156 31.910156 11.324219 32.066406 11.304688 32.261719 C 11.285156 32.453125 11.332031 32.625 11.453125 32.777344 C 12.054688 33.519531 12.71875 34.203125 13.445312 34.824219 C 14.171875 35.445312 14.945312 35.996094 15.773438 36.476562 C 16.597656 36.957031 17.460938 37.359375 18.359375 37.683594 C 19.257812 38.007812 20.175781 38.25 21.121094 38.40625 C 22.0625 38.5625 23.011719 38.632812 23.964844 38.617188 C 24.921875 38.605469 25.867188 38.503906 26.804688 38.316406 C 27.742188 38.128906 28.652344 37.859375 29.542969 37.507812 C 30.429688 37.15625 31.277344 36.726562 32.089844 36.21875 C 32.898438 35.714844 33.65625 35.136719 34.363281 34.492188 C 35.066406 33.851562 35.707031 33.148438 36.285156 32.386719 C 36.863281 31.625 37.371094 30.820312 37.800781 29.96875 C 38.234375 29.117188 38.585938 28.230469 38.855469 27.316406 C 39.128906 26.398438 39.316406 25.46875 39.417969 24.515625 C 39.519531 23.566406 39.535156 22.617188 39.464844 21.664062 C 39.394531 20.710938 39.238281 19.773438 38.996094 18.847656 C 38.753906 17.921875 38.433594 17.027344 38.03125 16.164062 C 37.625 15.296875 37.148438 14.472656 36.59375 13.695312 C 36.042969 12.914062 35.425781 12.191406 34.738281 11.527344 C 34.054688 10.859375 33.316406 10.257812 32.523438 9.726562 C 31.730469 9.195312 30.898438 8.738281 30.023438 8.355469 C 29.144531 7.972656 28.242188 7.675781 27.3125 7.457031 C 26.382812 7.238281 25.441406 7.105469 24.484375 7.0625 C 23.53125 7.015625 22.582031 7.054688 21.632812 7.179688 C 20.6875 7.304688 19.757812 7.515625 18.851562 7.8125 Z M 9.664062 12.703125 C 11.726562 10.160156 13.011719 10.992188 15.433594 9.03125 C 15.671875 10.441406 15.511719 11.804688 14.957031 13.121094 C 14.480469 14.125 13.835938 15.007812 13.019531 15.761719 C 12.199219 16.519531 11.269531 17.09375 10.230469 17.488281 C 10.75 15.914062 11.664062 14.621094 12.976562 13.609375 C 13.128906 13.488281 13.214844 13.332031 13.238281 13.140625 C 13.261719 12.945312 13.210938 12.773438 13.09375 12.621094 C 12.972656 12.46875 12.816406 12.378906 12.625 12.355469 C 12.433594 12.332031 12.261719 12.378906 12.105469 12.496094 C 10.78125 13.519531 9.796875 14.804688 9.152344 16.347656 C 8.769531 14.824219 8.9375 13.601562 9.664062 12.703125 Z M 1.746094 17.230469 C 2.421875 17.347656 3.097656 17.351562 3.777344 17.25 C 4.019531 17.207031 4.265625 17.207031 4.507812 17.25 C 4.75 17.296875 4.980469 17.382812 5.191406 17.511719 C 5.402344 17.640625 5.582031 17.800781 5.734375 18 C 5.886719 18.195312 6 18.410156 6.070312 18.648438 C 5.636719 18.339844 5.167969 18.109375 4.660156 17.949219 C 4.472656 17.894531 4.296875 17.914062 4.125 18.007812 C 3.953125 18.097656 3.839844 18.238281 3.785156 18.421875 C 3.726562 18.609375 3.746094 18.785156 3.835938 18.957031 C 3.925781 19.128906 4.0625 19.246094 4.25 19.304688 C 4.695312 19.4375 5.101562 19.648438 5.46875 19.9375 C 4.734375 19.871094 4.054688 19.640625 3.429688 19.246094 C 2.65625 18.75 2.097656 18.078125 1.746094 17.230469 Z M 26.484375 8.730469 C 27.113281 8.855469 27.734375 9.023438 28.339844 9.234375 C 27.746094 9.574219 27.015625 9.167969 26.484375 8.730469 Z M 33.386719 12.226562 C 33.703125 12.515625 34.007812 12.820312 34.296875 13.136719 C 33.867188 12.960938 33.5625 12.65625 33.386719 12.226562 Z M 36.703125 23.351562 C 36.714844 22.152344 36.625 20.960938 36.433594 19.78125 C 36.214844 18.636719 35.9375 18.023438 36.097656 17.414062 C 36.191406 17.054688 36.347656 16.722656 36.566406 16.425781 C 37.605469 18.480469 38.113281 20.65625 38.085938 22.957031 C 37.582031 22.925781 37.117188 23.058594 36.703125 23.351562 Z M 36.703125 23.351562 " fill-opacity="1" fill-rule="nonzero"/><path fill="#df2929" d="M 11.503906 30.605469 C 11.503906 30.800781 11.433594 30.964844 11.296875 31.105469 C 11.15625 31.242188 10.992188 31.3125 10.796875 31.3125 C 10.601562 31.3125 10.433594 31.242188 10.296875 31.105469 C 10.160156 30.964844 10.089844 30.800781 10.089844 30.605469 C 10.089844 30.410156 10.160156 30.242188 10.296875 30.105469 C 10.433594 29.96875 10.601562 29.898438 10.796875 29.898438 C 10.992188 29.898438 11.15625 29.96875 11.296875 30.105469 C 11.433594 30.242188 11.503906 30.410156 11.503906 30.605469 Z M 11.503906 30.605469 " fill-opacity="1" fill-rule="nonzero"/><path fill="#df2929" d="M 15.828125 33.992188 C 13.707031 32.488281 12.136719 30.539062 11.121094 28.140625 C 11.046875 27.960938 11.046875 27.78125 11.121094 27.601562 C 11.195312 27.425781 11.320312 27.296875 11.5 27.222656 C 11.679688 27.144531 11.855469 27.144531 12.035156 27.214844 C 12.214844 27.289062 12.34375 27.414062 12.421875 27.589844 C 13.332031 29.738281 14.742188 31.488281 16.648438 32.839844 C 16.804688 32.953125 16.898438 33.105469 16.933594 33.296875 C 16.964844 33.488281 16.925781 33.664062 16.8125 33.820312 C 16.699219 33.980469 16.546875 34.074219 16.355469 34.109375 C 16.164062 34.140625 15.988281 34.101562 15.828125 33.992188 Z M 15.828125 33.992188 " fill-opacity="1" fill-rule="nonzero"/><path fill="#df2929" d="M 10.429688 26.035156 C 10.339844 25.664062 10.265625 25.28125 10.207031 24.898438 C 10.179688 24.707031 10.222656 24.535156 10.335938 24.378906 C 10.453125 24.222656 10.605469 24.128906 10.800781 24.101562 C 10.992188 24.070312 11.164062 24.113281 11.320312 24.226562 C 11.476562 24.34375 11.570312 24.496094 11.601562 24.6875 C 11.65625 25.03125 11.722656 25.371094 11.800781 25.703125 C 11.847656 25.894531 11.820312 26.070312 11.71875 26.238281 C 11.617188 26.402344 11.46875 26.507812 11.28125 26.554688 C 11.09375 26.601562 10.914062 26.574219 10.746094 26.472656 C 10.582031 26.371094 10.476562 26.226562 10.429688 26.035156 Z M 10.429688 26.035156 " fill-opacity="1" fill-rule="nonzero"/><path fill="#df2929" d="M 18.851562 7.8125 C 18.667969 7.871094 18.53125 7.988281 18.445312 8.160156 C 18.355469 8.335938 18.34375 8.511719 18.402344 8.699219 C 18.460938 8.882812 18.578125 9.019531 18.75 9.109375 C 18.921875 9.195312 19.101562 9.210938 19.285156 9.15625 C 20.160156 8.875 21.054688 8.679688 21.96875 8.574219 C 21.53125 9.839844 22.128906 10.730469 23.148438 11.480469 C 23.292969 11.578125 23.429688 11.691406 23.558594 11.8125 C 23.578125 12.5625 22.128906 13.515625 21.242188 13.667969 C 18.667969 14.113281 16.621094 14.125 15.992188 15.285156 C 15.078125 16.980469 16.792969 18.359375 17.382812 19.066406 C 19.046875 21.058594 20 21.175781 21.652344 20.925781 C 23.152344 20.699219 23.175781 21.582031 24.945312 21.597656 C 25.738281 21.605469 26.203125 22.285156 26.800781 22.816406 C 27.492188 23.410156 28.246094 23.910156 29.058594 24.324219 C 30.371094 25.058594 29.777344 26.117188 29.257812 27.253906 C 27.839844 30.324219 25.828125 30.605469 23.796875 33.464844 C 23.386719 34.070312 23.128906 34.738281 23.023438 35.460938 C 22.589844 34.992188 22.3125 34.441406 22.191406 33.816406 C 21.792969 31.683594 25.164062 29.699219 21.359375 27.199219 C 20.75 26.890625 20.296875 26.425781 20.003906 25.8125 C 19.515625 24.601562 20.433594 24.28125 19.824219 22.59375 C 18.921875 20.082031 15.378906 19.421875 13.535156 17.175781 C 14.722656 16.238281 15.625 15.078125 16.246094 13.695312 C 17.03125 11.8125 17.167969 9.882812 16.648438 7.90625 C 16.605469 7.742188 16.527344 7.601562 16.410156 7.484375 C 16.292969 7.363281 16.15625 7.28125 15.992188 7.234375 C 15.832031 7.191406 15.671875 7.1875 15.507812 7.226562 C 15.34375 7.269531 15.203125 7.347656 15.082031 7.464844 C 12.613281 9.824219 11.082031 8.714844 8.566406 11.8125 C 7.636719 12.957031 6.867188 15.078125 8.476562 18.667969 L 8.484375 18.6875 C 8.332031 19.25 8.214844 19.820312 8.125 20.394531 C 8.066406 20.328125 8.011719 20.265625 7.953125 20.207031 C 7.5625 17.5625 6.289062 15.527344 3.613281 15.847656 C 2.84375 15.984375 2.089844 15.921875 1.351562 15.65625 C 1.003906 15.519531 0.691406 15.574219 0.410156 15.816406 C 0.128906 16.058594 0.0273438 16.359375 0.105469 16.722656 C 0.269531 17.488281 0.574219 18.191406 1.019531 18.835938 C 1.460938 19.476562 2.011719 20.011719 2.667969 20.4375 C 4.011719 21.28125 5.460938 21.5625 7.023438 21.285156 C 7.484375 21.746094 7.785156 22.296875 7.933594 22.933594 C 7.941406 25.046875 8.359375 27.074219 9.1875 29.015625 C 9.265625 29.195312 9.394531 29.320312 9.574219 29.394531 C 9.753906 29.464844 9.933594 29.464844 10.113281 29.386719 C 10.292969 29.3125 10.417969 29.183594 10.492188 29.003906 C 10.5625 28.820312 10.5625 28.640625 10.488281 28.464844 C 9.859375 26.984375 9.488281 25.445312 9.378906 23.847656 C 9.265625 22.246094 9.417969 20.667969 9.832031 19.121094 C 10.726562 18.847656 11.570312 18.46875 12.371094 17.984375 C 14.4375 20.574219 17.800781 21.148438 18.496094 23.074219 C 18.917969 24.253906 18.007812 24.640625 18.691406 26.339844 C 19.09375 27.230469 19.722656 27.910156 20.582031 28.378906 C 23.410156 30.234375 20.226562 31.007812 20.800781 34.074219 C 21 35.1875 21.539062 36.09375 22.425781 36.792969 C 23.242188 37.332031 24.125 37.136719 24.417969 35.699219 C 24.488281 35.1875 24.667969 34.714844 24.949219 34.28125 C 26.832031 31.628906 28.964844 31.257812 30.539062 27.84375 C 31.496094 25.878906 31.722656 24.199219 29.746094 23.09375 C 29.023438 22.726562 28.355469 22.28125 27.738281 21.757812 C 26.855469 20.980469 26.386719 20.195312 24.957031 20.183594 C 23.433594 20.167969 23.554688 19.210938 21.441406 19.527344 C 20.296875 19.703125 19.804688 19.765625 18.46875 18.160156 C 17.949219 17.539062 16.851562 16.671875 17.234375 15.957031 C 17.5 15.558594 19.835938 15.347656 21.480469 15.0625 C 22.722656 14.847656 25.015625 13.53125 24.972656 11.777344 C 24.894531 11.128906 24.5625 10.648438 23.984375 10.34375 C 22.90625 9.550781 23.242188 9.347656 23.515625 8.464844 C 23.820312 8.457031 24.125 8.464844 24.429688 8.496094 C 25.144531 9.722656 26.789062 11.03125 28.316406 10.742188 C 28.914062 10.59375 29.421875 10.296875 29.847656 9.847656 C 30.492188 10.148438 31.113281 10.496094 31.707031 10.890625 C 31.597656 12.789062 32.945312 15.03125 35.46875 14.578125 C 35.601562 14.765625 35.726562 14.960938 35.847656 15.152344 C 35.289062 15.679688 34.914062 16.3125 34.730469 17.058594 C 34.449219 18.144531 34.800781 18.738281 35.046875 20.042969 C 35.558594 22.75 34.832031 24.246094 36.066406 24.769531 C 36.566406 24.949219 37.027344 24.875 37.449219 24.550781 C 37.621094 24.453125 37.828125 24.320312 38.007812 24.382812 C 37.929688 25.082031 37.804688 25.777344 37.625 26.457031 C 37.449219 27.140625 37.222656 27.808594 36.945312 28.457031 C 36.667969 29.105469 36.347656 29.734375 35.980469 30.335938 C 35.609375 30.9375 35.199219 31.507812 34.75 32.050781 C 34.296875 32.59375 33.804688 33.097656 33.277344 33.566406 C 32.753906 34.035156 32.195312 34.464844 31.605469 34.851562 C 31.015625 35.238281 30.398438 35.582031 29.757812 35.878906 C 29.117188 36.175781 28.460938 36.421875 27.78125 36.621094 C 27.105469 36.824219 26.417969 36.972656 25.71875 37.070312 C 25.019531 37.167969 24.316406 37.214844 23.613281 37.210938 C 22.90625 37.203125 22.203125 37.148438 21.507812 37.039062 C 20.808594 36.929688 20.125 36.769531 19.449219 36.5625 C 18.777344 36.351562 18.121094 36.09375 17.484375 35.789062 C 16.847656 35.480469 16.238281 35.132812 15.65625 34.734375 C 15.070312 34.339844 14.519531 33.902344 14 33.425781 C 13.476562 32.949219 12.996094 32.433594 12.550781 31.886719 C 12.429688 31.738281 12.269531 31.652344 12.078125 31.632812 C 11.882812 31.613281 11.710938 31.667969 11.5625 31.789062 C 11.410156 31.910156 11.324219 32.066406 11.304688 32.261719 C 11.285156 32.453125 11.332031 32.625 11.453125 32.777344 C 12.054688 33.519531 12.71875 34.203125 13.445312 34.824219 C 14.171875 35.445312 14.945312 35.996094 15.773438 36.476562 C 16.597656 36.957031 17.460938 37.359375 18.359375 37.683594 C 19.257812 38.007812 20.175781 38.25 21.121094 38.40625 C 22.0625 38.5625 23.011719 38.632812 23.964844 38.617188 C 24.921875 38.605469 25.867188 38.503906 26.804688 38.316406 C 27.742188 38.128906 28.652344 37.859375 29.542969 37.507812 C 30.429688 37.15625 31.277344 36.726562 32.089844 36.21875 C 32.898438 35.714844 33.65625 35.136719 34.363281 34.492188 C 35.066406 33.851562 35.707031 33.148438 36.285156 32.386719 C 36.863281 31.625 37.371094 30.820312 37.800781 29.96875 C 38.234375 29.117188 38.585938 28.230469 38.855469 27.316406 C 39.128906 26.398438 39.316406 25.46875 39.417969 24.515625 C 39.519531 23.566406 39.535156 22.617188 39.464844 21.664062 C 39.394531 20.710938 39.238281 19.773438 38.996094 18.847656 C 38.753906 17.921875 38.433594 17.027344 38.03125 16.164062 C 37.625 15.296875 37.148438 14.472656 36.59375 13.695312 C 36.042969 12.914062 35.425781 12.191406 34.738281 11.527344 C 34.054688 10.859375 33.316406 10.257812 32.523438 9.726562 C 31.730469 9.195312 30.898438 8.738281 30.023438 8.355469 C 29.144531 7.972656 28.242188 7.675781 27.3125 7.457031 C 26.382812 7.238281 25.441406 7.105469 24.484375 7.0625 C 23.53125 7.015625 22.582031 7.054688 21.632812 7.179688 C 20.6875 7.304688 19.757812 7.515625 18.851562 7.8125 Z M 9.664062 12.703125 C 11.726562 10.160156 13.011719 10.992188 15.433594 9.03125 C 15.671875 10.441406 15.511719 11.804688 14.957031 13.121094 C 14.480469 14.125 13.835938 15.007812 13.019531 15.761719 C 12.199219 16.519531 11.269531 17.09375 10.230469 17.488281 C 10.75 15.914062 11.664062 14.621094 12.976562 13.609375 C 13.128906 13.488281 13.214844 13.332031 13.238281 13.140625 C 13.261719 12.945312 13.210938 12.773438 13.09375 12.621094 C 12.972656 12.46875 12.816406 12.378906 12.625 12.355469 C 12.433594 12.332031 12.261719 12.378906 12.105469 12.496094 C 10.78125 13.519531 9.796875 14.804688 9.152344 16.347656 C 8.769531 14.824219 8.9375 13.601562 9.664062 12.703125 Z M 1.746094 17.230469 C 2.421875 17.347656 3.097656 17.351562 3.777344 17.25 C 4.019531 17.207031 4.265625 17.207031 4.507812 17.25 C 4.75 17.296875 4.980469 17.382812 5.191406 17.511719 C 5.402344 17.640625 5.582031 17.800781 5.734375 18 C 5.886719 18.195312 6 18.410156 6.070312 18.648438 C 5.636719 18.339844 5.167969 18.109375 4.660156 17.949219 C 4.472656 17.894531 4.296875 17.914062 4.125 18.007812 C 3.953125 18.097656 3.839844 18.238281 3.785156 18.421875 C 3.726562 18.609375 3.746094 18.785156 3.835938 18.957031 C 3.925781 19.128906 4.0625 19.246094 4.25 19.304688 C 4.695312 19.4375 5.101562 19.648438 5.46875 19.9375 C 4.734375 19.871094 4.054688 19.640625 3.429688 19.246094 C 2.65625 18.75 2.097656 18.078125 1.746094 17.230469 Z M 26.484375 8.730469 C 27.113281 8.855469 27.734375 9.023438 28.339844 9.234375 C 27.746094 9.574219 27.015625 9.167969 26.484375 8.730469 Z M 33.386719 12.226562 C 33.703125 12.515625 34.007812 12.820312 34.296875 13.136719 C 33.867188 12.960938 33.5625 12.65625 33.386719 12.226562 Z M 36.703125 23.351562 C 36.714844 22.152344 36.625 20.960938 36.433594 19.78125 C 36.214844 18.636719 35.9375 18.023438 36.097656 17.414062 C 36.191406 17.054688 36.347656 16.722656 36.566406 16.425781 C 37.605469 18.480469 38.113281 20.65625 38.085938 22.957031 C 37.582031 22.925781 37.117188 23.058594 36.703125 23.351562 Z M 36.703125 23.351562 " fill-opacity="1" fill-rule="nonzero"/><path fill="#df2929" d="M 11.503906 30.605469 C 11.503906 30.800781 11.433594 30.964844 11.296875 31.105469 C 11.15625 31.242188 10.992188 31.3125 10.796875 31.3125 C 10.601562 31.3125 10.433594 31.242188 10.296875 31.105469 C 10.160156 30.964844 10.089844 30.800781 10.089844 30.605469 C 10.089844 30.410156 10.160156 30.242188 10.296875 30.105469 C 10.433594 29.96875 10.601562 29.898438 10.796875 29.898438 C 10.992188 29.898438 11.15625 29.96875 11.296875 30.105469 C 11.433594 30.242188 11.503906 30.410156 11.503906 30.605469 Z M 11.503906 30.605469 " fill-opacity="1" fill-rule="nonzero"/></svg>