<svg xmlns="http://www.w3.org/2000/svg" xmlns:xlink="http://www.w3.org/1999/xlink" width="60" zoomAndPan="magnify" viewBox="0 0 45 44.999999" height="60" preserveAspectRatio="xMidYMid meet" version="1.0"><defs><clipPath id="e56abd77ee"><path d="M 1.914062 1.914062 L 40 1.914062 L 40 23 L 1.914062 23 Z M 1.914062 1.914062 " clip-rule="nonzero"/></clipPath><clipPath id="57f02a1090"><path d="M 5 22 L 43.164062 22 L 43.164062 43.164062 L 5 43.164062 Z M 5 22 " clip-rule="nonzero"/></clipPath><clipPath id="66044db7d6"><path d="M 2.363281 2.363281 L 40 2.363281 L 40 23 L 2.363281 23 Z M 2.363281 2.363281 " clip-rule="nonzero"/></clipPath><clipPath id="76beeeddaf"><path d="M 5 22 L 42.863281 22 L 42.863281 42.863281 L 5 42.863281 Z M 5 22 " clip-rule="nonzero"/></clipPath></defs><path fill="#df2929" d="M 13.394531 21.460938 C 12.902344 21.460938 12.410156 21.640625 12.042969 21.960938 C 11.601562 22.339844 11.359375 22.886719 11.359375 23.496094 C 11.359375 25 12.582031 25.535156 13.722656 25.535156 L 31.269531 25.535156 C 32.332031 25.648438 33.359375 25.15625 33.910156 24.277344 C 34.460938 23.402344 34.460938 22.265625 33.910156 21.390625 C 33.359375 20.511719 32.332031 20.011719 31.308594 20.132812 C 31.171875 20.148438 31.039062 20.078125 30.972656 19.957031 C 30.910156 19.832031 30.921875 19.683594 31.011719 19.578125 C 31.859375 18.582031 31.792969 17.074219 30.871094 16.148438 C 29.945312 15.226562 28.453125 15.160156 27.449219 15.996094 C 27.398438 16.042969 27.332031 16.078125 27.253906 16.085938 C 27.082031 16.105469 26.929688 15.988281 26.890625 15.820312 C 26.402344 13.511719 24.257812 11.882812 21.886719 12.046875 C 19.527344 12.203125 17.613281 14.09375 17.433594 16.449219 C 17.425781 16.554688 17.367188 16.648438 17.28125 16.707031 C 17.191406 16.761719 17.078125 16.777344 16.980469 16.738281 C 15.851562 16.324219 14.578125 16.710938 13.882812 17.691406 C 13.183594 18.667969 13.226562 20.003906 13.984375 20.933594 C 14.074219 21.042969 14.085938 21.191406 14.015625 21.3125 C 13.949219 21.433594 13.8125 21.5 13.675781 21.480469 C 13.582031 21.46875 13.488281 21.460938 13.394531 21.460938 Z M 31.601562 26.226562 C 31.476562 26.226562 31.355469 26.21875 31.234375 26.207031 L 13.722656 26.207031 C 12.210938 26.207031 10.6875 25.371094 10.6875 23.496094 C 10.6875 22.6875 11.011719 21.960938 11.597656 21.453125 C 12.023438 21.082031 12.542969 20.859375 13.09375 20.800781 C 12.515625 19.699219 12.589844 18.339844 13.332031 17.300781 C 14.125 16.191406 15.503906 15.683594 16.808594 15.984375 C 17.191406 13.492188 19.289062 11.542969 21.84375 11.375 C 24.367188 11.207031 26.679688 12.820312 27.421875 15.1875 C 28.660156 14.449219 30.300781 14.625 31.347656 15.671875 C 32.355469 16.679688 32.554688 18.234375 31.90625 19.453125 C 32.949219 19.550781 33.914062 20.125 34.480469 21.03125 C 35.167969 22.128906 35.167969 23.539062 34.480469 24.636719 C 33.859375 25.628906 32.757812 26.226562 31.601562 26.226562 " fill-opacity="1" fill-rule="nonzero"/><path fill="#df2929" d="M 15.074219 31.609375 C 15.007812 31.609375 14.945312 31.589844 14.886719 31.550781 C 14.730469 31.445312 14.6875 31.238281 14.792969 31.082031 L 16.144531 29.058594 C 16.246094 28.902344 16.457031 28.859375 16.609375 28.964844 C 16.765625 29.070312 16.808594 29.277344 16.703125 29.433594 L 15.351562 31.457031 C 15.289062 31.554688 15.179688 31.609375 15.074219 31.609375 " fill-opacity="1" fill-rule="nonzero"/><path fill="#df2929" d="M 21.820312 31.609375 C 21.757812 31.609375 21.691406 31.589844 21.632812 31.550781 C 21.480469 31.445312 21.4375 31.238281 21.542969 31.082031 L 22.890625 29.058594 C 22.996094 28.902344 23.207031 28.859375 23.359375 28.964844 C 23.515625 29.070312 23.554688 29.277344 23.449219 29.433594 L 22.101562 31.457031 C 22.039062 31.554688 21.929688 31.609375 21.820312 31.609375 " fill-opacity="1" fill-rule="nonzero"/><path fill="#df2929" d="M 17.097656 35.65625 C 17.035156 35.65625 16.96875 35.636719 16.910156 35.597656 C 16.753906 35.496094 16.710938 35.289062 16.816406 35.132812 L 18.167969 33.109375 C 18.269531 32.953125 18.480469 32.910156 18.632812 33.015625 C 18.789062 33.117188 18.832031 33.328125 18.726562 33.480469 L 17.375 35.507812 C 17.3125 35.605469 17.207031 35.65625 17.097656 35.65625 " fill-opacity="1" fill-rule="nonzero"/><path fill="#df2929" d="M 23.847656 35.65625 C 23.78125 35.65625 23.71875 35.636719 23.660156 35.597656 C 23.503906 35.496094 23.460938 35.289062 23.566406 35.132812 L 24.917969 33.109375 C 25.019531 32.953125 25.226562 32.910156 25.382812 33.015625 C 25.539062 33.117188 25.582031 33.328125 25.476562 33.480469 L 24.125 35.507812 C 24.0625 35.605469 23.953125 35.65625 23.847656 35.65625 " fill-opacity="1" fill-rule="nonzero"/><path fill="#df2929" d="M 28.570312 31.609375 C 28.507812 31.609375 28.441406 31.589844 28.382812 31.550781 C 28.226562 31.445312 28.1875 31.238281 28.289062 31.082031 L 29.640625 29.058594 C 29.742188 28.902344 29.953125 28.859375 30.105469 28.964844 C 30.261719 29.070312 30.304688 29.277344 30.199219 29.433594 L 28.851562 31.457031 C 28.785156 31.554688 28.679688 31.609375 28.570312 31.609375 " fill-opacity="1" fill-rule="nonzero"/><g clip-path="url(#e56abd77ee)"><path fill="#df2929" d="M 2.25 22.832031 C 2.0625 22.832031 1.914062 22.683594 1.914062 22.496094 C 1.914062 11.148438 11.148438 1.914062 22.496094 1.914062 C 29.398438 1.914062 35.808594 5.246094 39.644531 10.832031 C 39.753906 10.988281 39.714844 11.199219 39.558594 11.300781 C 39.40625 11.410156 39.195312 11.367188 39.089844 11.214844 C 35.378906 5.8125 29.175781 2.585938 22.496094 2.585938 C 11.519531 2.585938 2.585938 11.519531 2.585938 22.496094 C 2.585938 22.683594 2.4375 22.832031 2.25 22.832031 " fill-opacity="1" fill-rule="nonzero"/></g><path fill="#df2929" d="M 39.367188 11.359375 L 34.644531 11.359375 C 34.457031 11.359375 34.308594 11.210938 34.308594 11.023438 C 34.308594 10.835938 34.457031 10.6875 34.644531 10.6875 L 39.03125 10.6875 L 39.03125 6.300781 C 39.03125 6.113281 39.179688 5.960938 39.367188 5.960938 C 39.554688 5.960938 39.707031 6.113281 39.707031 6.300781 L 39.707031 11.023438 C 39.707031 11.210938 39.554688 11.359375 39.367188 11.359375 " fill-opacity="1" fill-rule="nonzero"/><g clip-path="url(#57f02a1090)"><path fill="#df2929" d="M 22.496094 43.082031 C 15.59375 43.082031 9.183594 39.746094 5.34375 34.160156 C 5.238281 34.007812 5.277344 33.796875 5.433594 33.691406 C 5.585938 33.585938 5.796875 33.625 5.902344 33.78125 C 9.613281 39.179688 15.816406 42.40625 22.496094 42.40625 C 33.472656 42.40625 42.40625 33.472656 42.40625 22.496094 C 42.40625 22.308594 42.554688 22.160156 42.742188 22.160156 C 42.929688 22.160156 43.082031 22.308594 43.082031 22.496094 C 43.082031 33.84375 33.84375 43.082031 22.496094 43.082031 " fill-opacity="1" fill-rule="nonzero"/></g><path fill="#df2929" d="M 5.625 39.03125 C 5.4375 39.03125 5.285156 38.882812 5.285156 38.695312 L 5.285156 33.96875 C 5.285156 33.78125 5.4375 33.632812 5.625 33.632812 L 10.347656 33.632812 C 10.535156 33.632812 10.6875 33.78125 10.6875 33.96875 C 10.6875 34.15625 10.535156 34.308594 10.347656 34.308594 L 5.960938 34.308594 L 5.960938 38.695312 C 5.960938 38.882812 5.8125 39.03125 5.625 39.03125 " fill-opacity="1" fill-rule="nonzero"/><path fill="#df2929" d="M 13.59375 21.480469 C 13.109375 21.480469 12.628906 21.65625 12.269531 21.972656 C 11.839844 22.34375 11.605469 22.875 11.605469 23.472656 C 11.605469 24.941406 12.796875 25.464844 13.914062 25.464844 L 31.078125 25.464844 C 32.117188 25.578125 33.117188 25.097656 33.65625 24.238281 C 34.195312 23.378906 34.195312 22.269531 33.65625 21.414062 C 33.117188 20.554688 32.117188 20.066406 31.113281 20.183594 C 30.980469 20.199219 30.847656 20.128906 30.785156 20.007812 C 30.722656 19.890625 30.734375 19.742188 30.824219 19.640625 C 31.652344 18.667969 31.589844 17.191406 30.683594 16.285156 C 29.78125 15.382812 28.320312 15.320312 27.339844 16.136719 C 27.292969 16.183594 27.222656 16.214844 27.148438 16.222656 C 26.980469 16.242188 26.828125 16.128906 26.792969 15.964844 C 26.3125 13.707031 24.21875 12.113281 21.898438 12.273438 C 19.589844 12.429688 17.71875 14.277344 17.542969 16.582031 C 17.535156 16.683594 17.480469 16.777344 17.390625 16.832031 C 17.308594 16.886719 17.195312 16.898438 17.101562 16.863281 C 15.996094 16.457031 14.753906 16.839844 14.070312 17.796875 C 13.386719 18.75 13.425781 20.054688 14.167969 20.964844 C 14.257812 21.070312 14.265625 21.21875 14.199219 21.335938 C 14.136719 21.457031 14 21.519531 13.867188 21.503906 C 13.773438 21.488281 13.683594 21.480469 13.59375 21.480469 Z M 31.402344 26.144531 C 31.28125 26.144531 31.160156 26.136719 31.039062 26.125 L 13.914062 26.125 C 12.4375 26.125 10.945312 25.304688 10.945312 23.472656 C 10.945312 22.683594 11.261719 21.972656 11.835938 21.472656 C 12.25 21.113281 12.761719 20.894531 13.296875 20.835938 C 12.734375 19.757812 12.804688 18.429688 13.53125 17.414062 C 14.304688 16.328125 15.65625 15.832031 16.929688 16.125 C 17.308594 13.691406 19.355469 11.78125 21.855469 11.617188 C 24.324219 11.453125 26.585938 13.03125 27.3125 15.347656 C 28.523438 14.625 30.128906 14.796875 31.152344 15.820312 C 32.140625 16.808594 32.332031 18.324219 31.699219 19.519531 C 32.71875 19.613281 33.664062 20.175781 34.21875 21.0625 C 34.890625 22.132812 34.890625 23.515625 34.21875 24.589844 C 33.609375 25.558594 32.53125 26.144531 31.402344 26.144531 " fill-opacity="1" fill-rule="nonzero"/><path fill="#df2929" d="M 15.234375 31.40625 C 15.171875 31.40625 15.109375 31.386719 15.050781 31.351562 C 14.898438 31.25 14.859375 31.046875 14.960938 30.894531 L 16.28125 28.914062 C 16.382812 28.761719 16.589844 28.71875 16.738281 28.824219 C 16.890625 28.921875 16.929688 29.128906 16.828125 29.28125 L 15.507812 31.257812 C 15.445312 31.355469 15.339844 31.40625 15.234375 31.40625 " fill-opacity="1" fill-rule="nonzero"/><path fill="#df2929" d="M 21.835938 31.40625 C 21.773438 31.40625 21.707031 31.386719 21.652344 31.351562 C 21.5 31.25 21.457031 31.046875 21.5625 30.894531 L 22.882812 28.914062 C 22.984375 28.761719 23.1875 28.71875 23.339844 28.824219 C 23.492188 28.921875 23.53125 29.128906 23.429688 29.28125 L 22.109375 31.257812 C 22.046875 31.355469 21.941406 31.40625 21.835938 31.40625 " fill-opacity="1" fill-rule="nonzero"/><path fill="#df2929" d="M 17.214844 35.367188 C 17.152344 35.367188 17.089844 35.347656 17.03125 35.308594 C 16.878906 35.210938 16.839844 35.007812 16.941406 34.855469 L 18.261719 32.875 C 18.363281 32.722656 18.566406 32.679688 18.71875 32.785156 C 18.871094 32.882812 18.910156 33.085938 18.808594 33.238281 L 17.488281 35.21875 C 17.425781 35.316406 17.320312 35.367188 17.214844 35.367188 " fill-opacity="1" fill-rule="nonzero"/><path fill="#df2929" d="M 23.816406 35.367188 C 23.753906 35.367188 23.6875 35.347656 23.632812 35.308594 C 23.480469 35.210938 23.4375 35.007812 23.542969 34.855469 L 24.863281 32.875 C 24.964844 32.722656 25.167969 32.679688 25.320312 32.785156 C 25.472656 32.882812 25.511719 33.085938 25.410156 33.238281 L 24.089844 35.21875 C 24.027344 35.316406 23.921875 35.367188 23.816406 35.367188 " fill-opacity="1" fill-rule="nonzero"/><path fill="#df2929" d="M 28.4375 31.40625 C 28.375 31.40625 28.308594 31.386719 28.253906 31.351562 C 28.101562 31.25 28.058594 31.046875 28.164062 30.894531 L 29.484375 28.914062 C 29.582031 28.761719 29.789062 28.71875 29.9375 28.824219 C 30.089844 28.921875 30.132812 29.128906 30.03125 29.28125 L 28.710938 31.257812 C 28.648438 31.355469 28.542969 31.40625 28.4375 31.40625 " fill-opacity="1" fill-rule="nonzero"/><g clip-path="url(#66044db7d6)"><path fill="#df2929" d="M 2.691406 22.824219 C 2.507812 22.824219 2.363281 22.679688 2.363281 22.496094 C 2.363281 11.394531 11.394531 2.363281 22.496094 2.363281 C 29.246094 2.363281 35.515625 5.625 39.269531 11.089844 C 39.375 11.238281 39.335938 11.445312 39.183594 11.542969 C 39.035156 11.648438 38.828125 11.613281 38.726562 11.460938 C 35.097656 6.175781 29.027344 3.023438 22.496094 3.023438 C 11.757812 3.023438 3.023438 11.757812 3.023438 22.496094 C 3.023438 22.679688 2.875 22.824219 2.691406 22.824219 " fill-opacity="1" fill-rule="nonzero"/></g><path fill="#df2929" d="M 38.996094 11.605469 L 34.378906 11.605469 C 34.195312 11.605469 34.046875 11.457031 34.046875 11.273438 C 34.046875 11.089844 34.195312 10.945312 34.378906 10.945312 L 38.667969 10.945312 L 38.667969 6.652344 C 38.667969 6.46875 38.816406 6.324219 38.996094 6.324219 C 39.179688 6.324219 39.328125 6.46875 39.328125 6.652344 L 39.328125 11.273438 C 39.328125 11.457031 39.179688 11.605469 38.996094 11.605469 " fill-opacity="1" fill-rule="nonzero"/><g clip-path="url(#76beeeddaf)"><path fill="#df2929" d="M 22.496094 42.628906 C 15.746094 42.628906 9.472656 39.367188 5.71875 33.902344 C 5.617188 33.753906 5.65625 33.546875 5.808594 33.445312 C 5.957031 33.34375 6.164062 33.378906 6.265625 33.53125 C 9.894531 38.816406 15.960938 41.96875 22.496094 41.96875 C 33.230469 41.96875 41.96875 33.230469 41.96875 22.496094 C 41.96875 22.3125 42.113281 22.164062 42.296875 22.164062 C 42.480469 22.164062 42.628906 22.3125 42.628906 22.496094 C 42.628906 33.59375 33.59375 42.628906 22.496094 42.628906 " fill-opacity="1" fill-rule="nonzero"/></g><path fill="#df2929" d="M 5.992188 38.667969 C 5.808594 38.667969 5.664062 38.519531 5.664062 38.335938 L 5.664062 33.71875 C 5.664062 33.535156 5.808594 33.386719 5.992188 33.386719 L 10.613281 33.386719 C 10.796875 33.386719 10.945312 33.535156 10.945312 33.71875 C 10.945312 33.898438 10.796875 34.046875 10.613281 34.046875 L 6.324219 34.046875 L 6.324219 38.335938 C 6.324219 38.519531 6.175781 38.667969 5.992188 38.667969 " fill-opacity="1" fill-rule="nonzero"/></svg>