<svg xmlns="http://www.w3.org/2000/svg" xmlns:xlink="http://www.w3.org/1999/xlink" width="60" zoomAndPan="magnify" viewBox="0 0 45 44.999999" height="60" preserveAspectRatio="xMidYMid meet" version="1.0"><defs><clipPath id="f16b5be257"><path d="M 11 1.449219 L 35 1.449219 L 35 16 L 11 16 Z M 11 1.449219 " clip-rule="nonzero"/></clipPath><clipPath id="f3b8418fcd"><path d="M 15 25 L 31 25 L 31 43.449219 L 15 43.449219 Z M 15 25 " clip-rule="nonzero"/></clipPath><clipPath id="8bfd4cc7f6"><path d="M 29 27.296875 L 40.5 27.296875 L 40.5 43.449219 L 29 43.449219 Z M 29 27.296875 " clip-rule="nonzero"/></clipPath><clipPath id="d5048fb763"><path d="M 5 27 L 17 27 L 17 43.449219 L 5 43.449219 Z M 5 27 " clip-rule="nonzero"/></clipPath><clipPath id="0f2be5e8f2"><path d="M 11 1.449219 L 35 1.449219 L 35 16 L 11 16 Z M 11 1.449219 " clip-rule="nonzero"/></clipPath><clipPath id="5240d16bb9"><path d="M 15 25 L 31 25 L 31 43.449219 L 15 43.449219 Z M 15 25 " clip-rule="nonzero"/></clipPath><clipPath id="b1d8c0cf5b"><path d="M 29 27.296875 L 40.5 27.296875 L 40.5 43.449219 L 29 43.449219 Z M 29 27.296875 " clip-rule="nonzero"/></clipPath><clipPath id="aaaa1df20e"><path d="M 5 27 L 17 27 L 17 43.449219 L 5 43.449219 Z M 5 27 " clip-rule="nonzero"/></clipPath></defs><g clip-path="url(#f16b5be257)"><path fill="#df2929" d="M 14.296875 11.476562 C 13.929688 11.476562 13.570312 11.609375 13.292969 11.847656 C 13.070312 12.042969 12.808594 12.386719 12.808594 12.949219 C 12.808594 14.316406 14.183594 14.421875 14.601562 14.421875 L 30.675781 14.421875 C 30.699219 14.421875 30.726562 14.425781 30.75 14.429688 C 31.558594 14.519531 32.355469 14.136719 32.78125 13.457031 C 33.210938 12.785156 33.210938 11.914062 32.78125 11.242188 C 32.355469 10.5625 31.566406 10.179688 30.75 10.269531 C 30.476562 10.300781 30.207031 10.160156 30.078125 9.914062 C 29.945312 9.671875 29.980469 9.367188 30.160156 9.15625 C 30.820312 8.386719 30.773438 7.269531 30.050781 6.554688 C 29.339844 5.851562 28.175781 5.804688 27.402344 6.449219 C 27.21875 6.601562 26.96875 6.644531 26.746094 6.570312 C 26.523438 6.492188 26.355469 6.304688 26.304688 6.074219 C 25.894531 4.160156 24.09375 2.808594 22.105469 2.949219 C 20.125 3.078125 18.515625 4.644531 18.367188 6.59375 C 18.351562 6.804688 18.238281 6.996094 18.058594 7.109375 C 17.878906 7.226562 17.65625 7.25 17.460938 7.179688 C 16.582031 6.851562 15.589844 7.15625 15.042969 7.910156 C 14.503906 8.65625 14.535156 9.679688 15.125 10.390625 C 15.304688 10.605469 15.328125 10.90625 15.191406 11.152344 C 15.058594 11.394531 14.789062 11.535156 14.507812 11.492188 C 14.4375 11.480469 14.371094 11.476562 14.296875 11.476562 Z M 30.980469 15.796875 C 30.867188 15.796875 30.753906 15.789062 30.640625 15.777344 L 14.601562 15.777344 C 12.71875 15.777344 11.453125 14.640625 11.453125 12.949219 C 11.453125 12.113281 11.792969 11.359375 12.40625 10.824219 C 12.726562 10.546875 13.101562 10.347656 13.503906 10.234375 C 13.136719 9.207031 13.285156 8.035156 13.945312 7.117188 C 14.683594 6.097656 15.921875 5.582031 17.136719 5.71875 C 17.65625 3.472656 19.636719 1.753906 22.015625 1.597656 C 24.359375 1.441406 26.496094 2.820312 27.355469 4.90625 C 28.570312 4.378906 30.011719 4.617188 31.003906 5.59375 C 31.921875 6.503906 32.191406 7.839844 31.785156 9 C 32.660156 9.207031 33.4375 9.746094 33.925781 10.515625 C 34.632812 11.628906 34.632812 13.070312 33.925781 14.183594 C 33.289062 15.1875 32.160156 15.796875 30.980469 15.796875 " fill-opacity="1" fill-rule="nonzero"/></g><path fill="#df2929" d="M 16.1875 20.308594 C 16.058594 20.308594 15.925781 20.265625 15.808594 20.1875 C 15.5 19.976562 15.417969 19.554688 15.628906 19.246094 L 16.863281 17.445312 C 17.070312 17.136719 17.492188 17.054688 17.800781 17.265625 C 18.109375 17.476562 18.1875 17.894531 17.980469 18.207031 L 16.75 20.011719 C 16.617188 20.203125 16.40625 20.308594 16.1875 20.308594 " fill-opacity="1" fill-rule="nonzero"/><path fill="#df2929" d="M 22.34375 20.308594 C 22.210938 20.308594 22.078125 20.265625 21.960938 20.1875 C 21.652344 19.976562 21.574219 19.554688 21.78125 19.246094 L 23.011719 17.445312 C 23.222656 17.136719 23.644531 17.054688 23.953125 17.265625 C 24.261719 17.476562 24.34375 17.894531 24.132812 18.207031 L 22.898438 20.011719 C 22.769531 20.203125 22.554688 20.308594 22.34375 20.308594 " fill-opacity="1" fill-rule="nonzero"/><path fill="#df2929" d="M 18.035156 23.914062 C 17.902344 23.914062 17.773438 23.878906 17.65625 23.800781 C 17.347656 23.585938 17.265625 23.167969 17.476562 22.859375 L 18.707031 21.050781 C 18.917969 20.742188 19.339844 20.667969 19.648438 20.875 C 19.953125 21.085938 20.035156 21.507812 19.824219 21.816406 L 18.59375 23.621094 C 18.464844 23.8125 18.25 23.914062 18.035156 23.914062 " fill-opacity="1" fill-rule="nonzero"/><path fill="#df2929" d="M 24.1875 23.914062 C 24.054688 23.914062 23.921875 23.878906 23.804688 23.800781 C 23.496094 23.585938 23.417969 23.167969 23.628906 22.859375 L 24.859375 21.050781 C 25.070312 20.742188 25.488281 20.667969 25.800781 20.875 C 26.109375 21.085938 26.1875 21.507812 25.976562 21.816406 L 24.746094 23.621094 C 24.613281 23.8125 24.402344 23.914062 24.1875 23.914062 " fill-opacity="1" fill-rule="nonzero"/><path fill="#df2929" d="M 28.492188 20.308594 C 28.359375 20.308594 28.230469 20.265625 28.113281 20.1875 C 27.804688 19.976562 27.722656 19.554688 27.933594 19.246094 L 29.164062 17.445312 C 29.375 17.136719 29.796875 17.054688 30.105469 17.265625 C 30.414062 17.476562 30.492188 17.894531 30.28125 18.207031 L 29.054688 20.011719 C 28.921875 20.203125 28.710938 20.308594 28.492188 20.308594 " fill-opacity="1" fill-rule="nonzero"/><g clip-path="url(#f3b8418fcd)"><path fill="#df2929" d="M 19.242188 42.1875 L 26.675781 42.1875 C 29.816406 37.753906 29.816406 31.730469 26.675781 27.296875 L 19.242188 27.296875 C 16.097656 31.730469 16.097656 37.753906 19.242188 42.1875 Z M 27.019531 43.539062 L 18.898438 43.539062 C 18.683594 43.539062 18.484375 43.4375 18.355469 43.265625 C 14.589844 38.246094 14.589844 31.238281 18.355469 26.21875 C 18.484375 26.046875 18.683594 25.945312 18.898438 25.945312 L 27.019531 25.945312 C 27.230469 25.945312 27.429688 26.046875 27.558594 26.21875 C 31.324219 31.238281 31.324219 38.246094 27.558594 43.265625 C 27.429688 43.4375 27.230469 43.539062 27.019531 43.539062 " fill-opacity="1" fill-rule="nonzero"/></g><g clip-path="url(#8bfd4cc7f6)"><path fill="#df2929" d="M 37.4375 43.539062 L 29.726562 43.539062 C 29.347656 43.539062 29.046875 43.234375 29.046875 42.863281 C 29.046875 42.488281 29.347656 42.1875 29.726562 42.1875 L 37.089844 42.1875 C 39.878906 38.15625 39.878906 32.683594 37.089844 28.652344 L 30.402344 28.652344 C 30.027344 28.652344 29.726562 28.347656 29.726562 27.976562 C 29.726562 27.601562 30.027344 27.296875 30.402344 27.296875 L 37.4375 27.296875 C 37.652344 27.296875 37.855469 27.402344 37.984375 27.574219 C 41.382812 32.191406 41.382812 38.648438 37.984375 43.265625 C 37.855469 43.4375 37.652344 43.539062 37.4375 43.539062 " fill-opacity="1" fill-rule="nonzero"/></g><g clip-path="url(#d5048fb763)"><path fill="#df2929" d="M 16.191406 43.539062 L 8.476562 43.539062 C 8.261719 43.539062 8.058594 43.4375 7.929688 43.265625 C 4.527344 38.648438 4.527344 32.191406 7.929688 27.574219 C 8.058594 27.402344 8.261719 27.296875 8.476562 27.296875 L 15.515625 27.296875 C 15.886719 27.296875 16.191406 27.601562 16.191406 27.976562 C 16.191406 28.347656 15.886719 28.652344 15.515625 28.652344 L 8.824219 28.652344 C 6.03125 32.683594 6.03125 38.15625 8.824219 42.1875 L 16.191406 42.1875 C 16.5625 42.1875 16.867188 42.488281 16.867188 42.863281 C 16.867188 43.234375 16.5625 43.539062 16.191406 43.539062 " fill-opacity="1" fill-rule="nonzero"/></g><path fill="#df2929" d="M 38.949219 31.359375 L 31.753906 31.359375 C 31.378906 31.359375 31.078125 31.054688 31.078125 30.683594 C 31.078125 30.308594 31.378906 30.003906 31.753906 30.003906 L 38.949219 30.003906 C 39.320312 30.003906 39.625 30.308594 39.625 30.683594 C 39.625 31.054688 39.320312 31.359375 38.949219 31.359375 " fill-opacity="1" fill-rule="nonzero"/><path fill="#df2929" d="M 14.160156 31.359375 L 6.964844 31.359375 C 6.59375 31.359375 6.289062 31.054688 6.289062 30.683594 C 6.289062 30.308594 6.59375 30.003906 6.964844 30.003906 L 14.160156 30.003906 C 14.535156 30.003906 14.835938 30.308594 14.835938 30.683594 C 14.835938 31.054688 14.535156 31.359375 14.160156 31.359375 " fill-opacity="1" fill-rule="nonzero"/><path fill="#df2929" d="M 38.949219 40.832031 L 31.078125 40.832031 C 30.703125 40.832031 30.402344 40.527344 30.402344 40.15625 C 30.402344 39.78125 30.703125 39.480469 31.078125 39.480469 L 38.949219 39.480469 C 39.320312 39.480469 39.625 39.78125 39.625 40.15625 C 39.625 40.527344 39.320312 40.832031 38.949219 40.832031 " fill-opacity="1" fill-rule="nonzero"/><path fill="#df2929" d="M 14.835938 40.832031 L 6.964844 40.832031 C 6.59375 40.832031 6.289062 40.527344 6.289062 40.15625 C 6.289062 39.78125 6.59375 39.480469 6.964844 39.480469 L 14.835938 39.480469 C 15.210938 39.480469 15.515625 39.78125 15.515625 40.15625 C 15.515625 40.527344 15.210938 40.832031 14.835938 40.832031 " fill-opacity="1" fill-rule="nonzero"/><path fill="#df2929" d="M 22.957031 32.203125 C 22.652344 32.734375 22.332031 33.195312 22.035156 33.621094 C 21.394531 34.550781 20.929688 35.222656 20.929688 36.097656 C 20.929688 37.214844 21.835938 38.125 22.957031 38.125 C 24.074219 38.125 24.988281 37.214844 24.988281 36.097656 C 24.988281 35.222656 24.523438 34.550781 23.878906 33.621094 C 23.582031 33.195312 23.265625 32.734375 22.957031 32.203125 Z M 22.957031 39.480469 C 21.089844 39.480469 19.574219 37.960938 19.574219 36.097656 C 19.574219 34.800781 20.230469 33.855469 20.921875 32.851562 C 21.390625 32.175781 21.921875 31.410156 22.332031 30.421875 C 22.4375 30.167969 22.683594 30.003906 22.957031 30.003906 C 23.230469 30.003906 23.476562 30.167969 23.582031 30.421875 C 23.992188 31.410156 24.523438 32.175781 24.992188 32.851562 C 25.6875 33.855469 26.339844 34.800781 26.339844 36.097656 C 26.339844 37.960938 24.820312 39.480469 22.957031 39.480469 " fill-opacity="1" fill-rule="nonzero"/><g clip-path="url(#0f2be5e8f2)"><path fill="#df2929" d="M 14.296875 11.476562 C 13.929688 11.476562 13.570312 11.609375 13.292969 11.847656 C 13.070312 12.042969 12.808594 12.386719 12.808594 12.949219 C 12.808594 14.316406 14.183594 14.421875 14.601562 14.421875 L 30.675781 14.421875 C 30.699219 14.421875 30.726562 14.425781 30.75 14.429688 C 31.558594 14.519531 32.355469 14.136719 32.78125 13.457031 C 33.210938 12.785156 33.210938 11.914062 32.78125 11.242188 C 32.355469 10.5625 31.566406 10.179688 30.75 10.269531 C 30.476562 10.300781 30.207031 10.160156 30.078125 9.914062 C 29.945312 9.671875 29.980469 9.367188 30.160156 9.15625 C 30.820312 8.386719 30.773438 7.269531 30.050781 6.554688 C 29.339844 5.851562 28.175781 5.804688 27.402344 6.449219 C 27.21875 6.601562 26.96875 6.644531 26.746094 6.570312 C 26.523438 6.492188 26.355469 6.304688 26.304688 6.074219 C 25.894531 4.160156 24.09375 2.808594 22.105469 2.949219 C 20.125 3.078125 18.515625 4.644531 18.367188 6.59375 C 18.351562 6.804688 18.238281 6.996094 18.058594 7.109375 C 17.878906 7.226562 17.65625 7.25 17.460938 7.179688 C 16.582031 6.851562 15.589844 7.15625 15.042969 7.910156 C 14.503906 8.65625 14.535156 9.679688 15.125 10.390625 C 15.304688 10.605469 15.328125 10.90625 15.191406 11.152344 C 15.058594 11.394531 14.789062 11.535156 14.507812 11.492188 C 14.4375 11.480469 14.371094 11.476562 14.296875 11.476562 Z M 30.980469 15.796875 C 30.867188 15.796875 30.753906 15.789062 30.640625 15.777344 L 14.601562 15.777344 C 12.71875 15.777344 11.453125 14.640625 11.453125 12.949219 C 11.453125 12.113281 11.792969 11.359375 12.40625 10.824219 C 12.726562 10.546875 13.101562 10.347656 13.503906 10.234375 C 13.136719 9.207031 13.285156 8.035156 13.945312 7.117188 C 14.683594 6.097656 15.921875 5.582031 17.136719 5.71875 C 17.65625 3.472656 19.636719 1.753906 22.015625 1.597656 C 24.359375 1.441406 26.496094 2.820312 27.355469 4.90625 C 28.570312 4.378906 30.011719 4.617188 31.003906 5.59375 C 31.921875 6.503906 32.191406 7.839844 31.785156 9 C 32.660156 9.207031 33.4375 9.746094 33.925781 10.515625 C 34.632812 11.628906 34.632812 13.070312 33.925781 14.183594 C 33.289062 15.1875 32.160156 15.796875 30.980469 15.796875 " fill-opacity="1" fill-rule="nonzero"/></g><path fill="#df2929" d="M 16.1875 20.308594 C 16.058594 20.308594 15.925781 20.265625 15.808594 20.1875 C 15.5 19.976562 15.417969 19.554688 15.628906 19.246094 L 16.863281 17.445312 C 17.070312 17.136719 17.492188 17.054688 17.800781 17.265625 C 18.109375 17.476562 18.1875 17.894531 17.980469 18.207031 L 16.75 20.011719 C 16.617188 20.203125 16.40625 20.308594 16.1875 20.308594 " fill-opacity="1" fill-rule="nonzero"/><path fill="#df2929" d="M 22.34375 20.308594 C 22.210938 20.308594 22.078125 20.265625 21.960938 20.1875 C 21.652344 19.976562 21.574219 19.554688 21.78125 19.246094 L 23.011719 17.445312 C 23.222656 17.136719 23.644531 17.054688 23.953125 17.265625 C 24.261719 17.476562 24.34375 17.894531 24.132812 18.207031 L 22.898438 20.011719 C 22.769531 20.203125 22.554688 20.308594 22.34375 20.308594 " fill-opacity="1" fill-rule="nonzero"/><path fill="#df2929" d="M 18.035156 23.914062 C 17.902344 23.914062 17.773438 23.878906 17.65625 23.800781 C 17.347656 23.585938 17.265625 23.167969 17.476562 22.859375 L 18.707031 21.050781 C 18.917969 20.742188 19.339844 20.667969 19.648438 20.875 C 19.953125 21.085938 20.035156 21.507812 19.824219 21.816406 L 18.59375 23.621094 C 18.464844 23.8125 18.25 23.914062 18.035156 23.914062 " fill-opacity="1" fill-rule="nonzero"/><path fill="#df2929" d="M 24.1875 23.914062 C 24.054688 23.914062 23.921875 23.878906 23.804688 23.800781 C 23.496094 23.585938 23.417969 23.167969 23.628906 22.859375 L 24.859375 21.050781 C 25.070312 20.742188 25.488281 20.667969 25.800781 20.875 C 26.109375 21.085938 26.1875 21.507812 25.976562 21.816406 L 24.746094 23.621094 C 24.613281 23.8125 24.402344 23.914062 24.1875 23.914062 " fill-opacity="1" fill-rule="nonzero"/><path fill="#df2929" d="M 28.492188 20.308594 C 28.359375 20.308594 28.230469 20.265625 28.113281 20.1875 C 27.804688 19.976562 27.722656 19.554688 27.933594 19.246094 L 29.164062 17.445312 C 29.375 17.136719 29.796875 17.054688 30.105469 17.265625 C 30.414062 17.476562 30.492188 17.894531 30.28125 18.207031 L 29.054688 20.011719 C 28.921875 20.203125 28.710938 20.308594 28.492188 20.308594 " fill-opacity="1" fill-rule="nonzero"/><g clip-path="url(#5240d16bb9)"><path fill="#df2929" d="M 19.242188 42.1875 L 26.675781 42.1875 C 29.816406 37.753906 29.816406 31.730469 26.675781 27.296875 L 19.242188 27.296875 C 16.097656 31.730469 16.097656 37.753906 19.242188 42.1875 Z M 27.019531 43.539062 L 18.898438 43.539062 C 18.683594 43.539062 18.484375 43.4375 18.355469 43.265625 C 14.589844 38.246094 14.589844 31.238281 18.355469 26.21875 C 18.484375 26.046875 18.683594 25.945312 18.898438 25.945312 L 27.019531 25.945312 C 27.230469 25.945312 27.429688 26.046875 27.558594 26.21875 C 31.324219 31.238281 31.324219 38.246094 27.558594 43.265625 C 27.429688 43.4375 27.230469 43.539062 27.019531 43.539062 " fill-opacity="1" fill-rule="nonzero"/></g><g clip-path="url(#b1d8c0cf5b)"><path fill="#df2929" d="M 37.4375 43.539062 L 29.726562 43.539062 C 29.347656 43.539062 29.046875 43.234375 29.046875 42.863281 C 29.046875 42.488281 29.347656 42.1875 29.726562 42.1875 L 37.089844 42.1875 C 39.878906 38.15625 39.878906 32.683594 37.089844 28.652344 L 30.402344 28.652344 C 30.027344 28.652344 29.726562 28.347656 29.726562 27.976562 C 29.726562 27.601562 30.027344 27.296875 30.402344 27.296875 L 37.4375 27.296875 C 37.652344 27.296875 37.855469 27.402344 37.984375 27.574219 C 41.382812 32.191406 41.382812 38.648438 37.984375 43.265625 C 37.855469 43.4375 37.652344 43.539062 37.4375 43.539062 " fill-opacity="1" fill-rule="nonzero"/></g><g clip-path="url(#aaaa1df20e)"><path fill="#df2929" d="M 16.191406 43.539062 L 8.476562 43.539062 C 8.261719 43.539062 8.058594 43.4375 7.929688 43.265625 C 4.527344 38.648438 4.527344 32.191406 7.929688 27.574219 C 8.058594 27.402344 8.261719 27.296875 8.476562 27.296875 L 15.515625 27.296875 C 15.886719 27.296875 16.191406 27.601562 16.191406 27.976562 C 16.191406 28.347656 15.886719 28.652344 15.515625 28.652344 L 8.824219 28.652344 C 6.03125 32.683594 6.03125 38.15625 8.824219 42.1875 L 16.191406 42.1875 C 16.5625 42.1875 16.867188 42.488281 16.867188 42.863281 C 16.867188 43.234375 16.5625 43.539062 16.191406 43.539062 " fill-opacity="1" fill-rule="nonzero"/></g><path fill="#df2929" d="M 38.949219 31.359375 L 31.753906 31.359375 C 31.378906 31.359375 31.078125 31.054688 31.078125 30.683594 C 31.078125 30.308594 31.378906 30.003906 31.753906 30.003906 L 38.949219 30.003906 C 39.320312 30.003906 39.625 30.308594 39.625 30.683594 C 39.625 31.054688 39.320312 31.359375 38.949219 31.359375 " fill-opacity="1" fill-rule="nonzero"/><path fill="#df2929" d="M 14.160156 31.359375 L 6.964844 31.359375 C 6.59375 31.359375 6.289062 31.054688 6.289062 30.683594 C 6.289062 30.308594 6.59375 30.003906 6.964844 30.003906 L 14.160156 30.003906 C 14.535156 30.003906 14.835938 30.308594 14.835938 30.683594 C 14.835938 31.054688 14.535156 31.359375 14.160156 31.359375 " fill-opacity="1" fill-rule="nonzero"/><path fill="#df2929" d="M 38.949219 40.832031 L 31.078125 40.832031 C 30.703125 40.832031 30.402344 40.527344 30.402344 40.15625 C 30.402344 39.78125 30.703125 39.480469 31.078125 39.480469 L 38.949219 39.480469 C 39.320312 39.480469 39.625 39.78125 39.625 40.15625 C 39.625 40.527344 39.320312 40.832031 38.949219 40.832031 " fill-opacity="1" fill-rule="nonzero"/><path fill="#df2929" d="M 14.835938 40.832031 L 6.964844 40.832031 C 6.59375 40.832031 6.289062 40.527344 6.289062 40.15625 C 6.289062 39.78125 6.59375 39.480469 6.964844 39.480469 L 14.835938 39.480469 C 15.210938 39.480469 15.515625 39.78125 15.515625 40.15625 C 15.515625 40.527344 15.210938 40.832031 14.835938 40.832031 " fill-opacity="1" fill-rule="nonzero"/><path fill="#df2929" d="M 22.957031 32.203125 C 22.652344 32.734375 22.332031 33.195312 22.035156 33.621094 C 21.394531 34.550781 20.929688 35.222656 20.929688 36.097656 C 20.929688 37.214844 21.835938 38.125 22.957031 38.125 C 24.074219 38.125 24.988281 37.214844 24.988281 36.097656 C 24.988281 35.222656 24.523438 34.550781 23.878906 33.621094 C 23.582031 33.195312 23.265625 32.734375 22.957031 32.203125 Z M 22.957031 39.480469 C 21.089844 39.480469 19.574219 37.960938 19.574219 36.097656 C 19.574219 34.800781 20.230469 33.855469 20.921875 32.851562 C 21.390625 32.175781 21.921875 31.410156 22.332031 30.421875 C 22.4375 30.167969 22.683594 30.003906 22.957031 30.003906 C 23.230469 30.003906 23.476562 30.167969 23.582031 30.421875 C 23.992188 31.410156 24.523438 32.175781 24.992188 32.851562 C 25.6875 33.855469 26.339844 34.800781 26.339844 36.097656 C 26.339844 37.960938 24.820312 39.480469 22.957031 39.480469 " fill-opacity="1" fill-rule="nonzero"/></svg>